<?xml version="1.0" encoding="UTF-8"?>
<svg width="92px" height="39px" viewBox="0 0 92 39" version="1.1" xmlns="http://www.w3.org/2000/svg" xmlns:xlink="http://www.w3.org/1999/xlink" class="logo">
    <g id="moonsault-logo" stroke="none" stroke-width="1" fill="none" fill-rule="evenodd">
        <g id="moonsault-logo" fill="#FFFFFF">
            <g transform="translate(0.513672, 0.000000)">
                <path d="M11,22 C17.0751325,22 22,17.0751325 22,11 C22,4.92486745 17.0751325,0 11,0 C4.92486745,0 0,4.92486745 0,11 C0,17.0751325 4.92486745,22 11,22 Z" id="full-copy-106" opacity="0.200000018"></path>
                <path d="M34,22 C40.0751325,22 45,17.0751325 45,11 C45,4.92486745 40.0751325,0 34,0 C27.9248675,0 23,4.92486745 23,11 C23,17.0751325 27.9248675,22 34,22 Z" id="full-copy-105" opacity="0.200000018"></path>
                <path d="M57,22 C63.0751325,22 68,17.0751325 68,11 C68,4.92486745 63.0751325,0 57,0 C50.9248675,0 46,4.92486745 46,11 C46,17.0751325 50.9248675,22 57,22 Z" id="full-copy-104" opacity="0.200000018"></path>
                <path d="M80,22 C86.0751325,22 91,17.0751325 91,11 C91,4.92486745 86.0751325,0 80,0 C73.9248675,0 69,4.92486745 69,11 C69,17.0751325 73.9248675,22 80,22 Z" id="full-copy-103" opacity="0.200000018"></path>
                <path d="M80,20 C84.970563,20 89,15.970563 89,11 C89,6.02943701 84.970563,2 80,2 C75.029437,2 71,6.02943701 71,11 C71,15.970563 75.029437,20 80,20 Z" id="full-copy-102"></path>
                <g transform="translate(25.000000, 2.000000)">
                    <path d="M7.81678878,1.88293825e-13 C6.43923395,1.86685599 5.625,4.17479968 5.625,6.67291801 C5.625,11.4139792 8.5577451,15.4700607 12.7080504,17.1259776 C11.5773328,17.6379057 10.3219505,17.922918 9,17.922918 C4.02943701,17.922918 0,13.893481 0,8.92291801 C0,4.35342705 3.40540565,0.579311653 7.81678878,2.37657116e-14 Z" id="Combined-Shape-Copy-12"></path>
                </g>
                <g transform="translate(57.000000, 11.000000) scale(1, -1) translate(-57.000000, -11.000000) translate(48.000000, 2.000000)">
                    <path d="M6.82704586,17.735926 C2.90625154,16.7638817 0,13.2213367 0,9 C0,4.02943701 4.02943701,0 9,0 C9.96614829,0 10.8967397,0.152237199 11.7690945,0.434031984 C12.8685729,2.28295959 13.5,4.4427409 13.5,6.75 C13.5,11.5281355 10.7920076,15.6737852 6.82704586,17.735926 Z" id="Combined-Shape-Copy-10"></path>
                </g>
            </g>
            <path d="M11.158805,30.5936272 C10.8145576,30.5936272 10.5100357,30.6730677 10.2452301,30.8319511 C9.98042448,30.9908345 9.75534307,31.1761956 9.56997913,31.3880401 C9.62294026,31.6131249 9.65935048,31.8713065 9.67921091,32.1625927 C9.69907133,32.4538789 9.70900139,32.7319207 9.70900139,32.9967263 L9.70900139,38.021388 L6.53134972,38.021388 L6.53134972,32.9371453 C6.53134972,32.1294881 6.42873908,31.5369944 6.22351472,31.1596464 C6.01829035,30.7822984 5.6574981,30.5936272 5.14112712,30.5936272 C4.81012008,30.5936272 4.52214828,30.6664477 4.27720307,30.8120908 C4.03225786,30.9577339 3.83696664,31.136475 3.69132354,31.3483195 L3.69132354,38.021388 L0.513671875,38.021388 L0.513671875,28.2898298 L3.57216161,28.2898298 L3.57216161,29.5608904 C3.87668808,29.0312792 4.27720059,28.6539368 4.77371114,28.428852 C5.2702217,28.2037672 5.77665487,28.0912265 6.29302585,28.0912265 C6.92855936,28.0912265 7.45485265,28.2203173 7.87192152,28.4785028 C8.28899039,28.7366883 8.68288285,29.1570609 9.05361073,29.7396333 C9.74210537,28.64069 10.8211721,28.0912265 12.2908434,28.0912265 C12.9263769,28.0912265 13.4626002,28.2269374 13.8995295,28.4983631 C14.3364588,28.7697889 14.690631,29.1305812 14.9620568,29.5807507 C15.2334826,30.0309203 15.4287738,30.5505936 15.5479363,31.1397861 C15.6670989,31.7289786 15.7266792,32.3479525 15.7266792,32.9967263 L15.7266792,38.021388 L12.5490276,38.021388 L12.5490276,32.9371453 C12.5490276,32.1294881 12.4464169,31.5369944 12.2411926,31.1596464 C12.0359682,30.7822984 11.6751759,30.5936272 11.158805,30.5936272 Z M27.1662253,33.1556089 C27.1662253,33.8705841 27.0536846,34.5358982 26.8285998,35.1515713 C26.603515,35.7672444 26.2725129,36.3034678 25.8355837,36.7602575 C25.3986544,37.2170472 24.855811,37.5745294 24.2070372,37.8327149 C23.5582634,38.0909004 22.8168187,38.2199912 21.982681,38.2199912 C21.1485433,38.2199912 20.4070986,38.0909004 19.7583248,37.8327149 C19.109551,37.5745294 18.5667076,37.2170472 18.1297784,36.7602575 C17.6928491,36.3034678 17.361847,35.7672444 17.1367622,35.1515713 C16.9116774,34.5358982 16.7991367,33.8705841 16.7991367,33.1556089 C16.7991367,32.4406337 16.9116774,31.7753195 17.1367622,31.1596464 C17.361847,30.5439733 17.6928491,30.00775 18.1297784,29.5509603 C18.5667076,29.0941705 19.109551,28.7366883 19.7583248,28.4785028 C20.4070986,28.2203173 21.1485433,28.0912265 21.982681,28.0912265 C22.8168187,28.0912265 23.5582634,28.2203173 24.2070372,28.4785028 C24.855811,28.7366883 25.3986544,29.0941705 25.8355837,29.5509603 C26.2725129,30.00775 26.603515,30.5439733 26.8285998,31.1596464 C27.0536846,31.7753195 27.1662253,32.4406337 27.1662253,33.1556089 Z M23.9885736,33.1556089 C23.9885736,32.8113616 23.9554734,32.4770495 23.889272,32.1526626 C23.8230706,31.8282757 23.7138399,31.5369938 23.5615767,31.2788084 C23.4093134,31.0206229 23.2040922,30.8154016 22.9459067,30.6631383 C22.6877212,30.5108751 22.3666492,30.4347446 21.982681,30.4347446 C21.5987128,30.4347446 21.2776408,30.5108751 21.0194553,30.6631383 C20.7612699,30.8154016 20.5560486,31.0206229 20.4037853,31.2788084 C20.2515221,31.5369938 20.1422914,31.8282757 20.07609,32.1526626 C20.0098886,32.4770495 19.9767884,32.8113616 19.9767884,33.1556089 C19.9767884,33.4998562 20.0098886,33.8341683 20.07609,34.1585552 C20.1422914,34.4829421 20.2515221,34.7742239 20.4037853,35.0324094 C20.5560486,35.2905949 20.7612699,35.4958162 21.0194553,35.6480794 C21.2776408,35.8003426 21.5987128,35.8764731 21.982681,35.8764731 C22.3666492,35.8764731 22.6877212,35.8003426 22.9459067,35.6480794 C23.2040922,35.4958162 23.4093134,35.2905949 23.5615767,35.0324094 C23.7138399,34.7742239 23.8230706,34.4829421 23.889272,34.1585552 C23.9554734,33.8341683 23.9885736,33.4998562 23.9885736,33.1556089 Z M38.0695426,33.1556089 C38.0695426,33.8705841 37.9570019,34.5358982 37.7319171,35.1515713 C37.5068323,35.7672444 37.1758303,36.3034678 36.738901,36.7602575 C36.3019717,37.2170472 35.7591283,37.5745294 35.1103545,37.8327149 C34.4615807,38.0909004 33.7201361,38.2199912 32.8859983,38.2199912 C32.0518606,38.2199912 31.310416,38.0909004 30.6616422,37.8327149 C30.0128684,37.5745294 29.470025,37.2170472 29.0330957,36.7602575 C28.5961664,36.3034678 28.2651643,35.7672444 28.0400795,35.1515713 C27.8149948,34.5358982 27.702454,33.8705841 27.702454,33.1556089 C27.702454,32.4406337 27.8149948,31.7753195 28.0400795,31.1596464 C28.2651643,30.5439733 28.5961664,30.00775 29.0330957,29.5509603 C29.470025,29.0941705 30.0128684,28.7366883 30.6616422,28.4785028 C31.310416,28.2203173 32.0518606,28.0912265 32.8859983,28.0912265 C33.7201361,28.0912265 34.4615807,28.2203173 35.1103545,28.4785028 C35.7591283,28.7366883 36.3019717,29.0941705 36.738901,29.5509603 C37.1758303,30.00775 37.5068323,30.5439733 37.7319171,31.1596464 C37.9570019,31.7753195 38.0695426,32.4406337 38.0695426,33.1556089 Z M34.8918909,33.1556089 C34.8918909,32.8113616 34.8587907,32.4770495 34.7925893,32.1526626 C34.7263879,31.8282757 34.6171572,31.5369938 34.464894,31.2788084 C34.3126308,31.0206229 34.1074095,30.8154016 33.849224,30.6631383 C33.5910385,30.5108751 33.2699665,30.4347446 32.8859983,30.4347446 C32.5020302,30.4347446 32.1809582,30.5108751 31.9227727,30.6631383 C31.6645872,30.8154016 31.4593659,31.0206229 31.3071027,31.2788084 C31.1548394,31.5369938 31.0456087,31.8282757 30.9794073,32.1526626 C30.9132059,32.4770495 30.8801057,32.8113616 30.8801057,33.1556089 C30.8801057,33.4998562 30.9132059,33.8341683 30.9794073,34.1585552 C31.0456087,34.4829421 31.1548394,34.7742239 31.3071027,35.0324094 C31.4593659,35.2905949 31.6645872,35.4958162 31.9227727,35.6480794 C32.1809582,35.8003426 32.5020302,35.8764731 32.8859983,35.8764731 C33.2699665,35.8764731 33.5910385,35.8003426 33.849224,35.6480794 C34.1074095,35.4958162 34.3126308,35.2905949 34.464894,35.0324094 C34.6171572,34.7742239 34.7263879,34.4829421 34.7925893,34.1585552 C34.8587907,33.8341683 34.8918909,33.4998562 34.8918909,33.1556089 Z M39.2810224,38.021388 L39.2810224,28.2898298 L42.3395121,28.2898298 L42.3395121,29.5608904 C42.6440386,29.0312792 43.037931,28.6539368 43.5212013,28.428852 C44.0044716,28.2037672 44.5175248,28.0912265 45.0603763,28.0912265 C45.7091501,28.0912265 46.2586136,28.2269374 46.7087831,28.4983631 C47.1589527,28.7697889 47.526365,29.1305812 47.8110311,29.5807507 C48.0956971,30.0309203 48.3009184,30.5505936 48.4267011,31.1397861 C48.5524837,31.7289786 48.6153741,32.3479525 48.6153741,32.9967263 L48.6153741,38.021388 L45.4377225,38.021388 L45.4377225,32.9371453 C45.4377225,32.1294881 45.3119417,31.5369944 45.0603763,31.1596464 C44.808811,30.7822984 44.4248486,30.5936272 43.9084776,30.5936272 C43.5774706,30.5936272 43.2894988,30.6664477 43.0445536,30.8120908 C42.7996083,30.9577339 42.6043171,31.136475 42.458674,31.3483195 L42.458674,38.021388 L39.2810224,38.021388 Z M57.2943353,34.8437363 C57.2943353,35.3865879 57.1917247,35.8698509 56.9865003,36.2935399 C56.7812759,36.7172289 56.4899941,37.0714011 56.1126461,37.3560672 C55.7352981,37.6407332 55.2884453,37.8558846 54.7720743,38.0015277 C54.2557033,38.1471708 53.6863797,38.2199912 53.0640865,38.2199912 C52.5344753,38.2199912 51.9783918,38.1703409 51.3958194,38.0710388 C50.813247,37.9717367 50.2836437,37.8227858 49.8069936,37.6241815 L50.2439207,35.4196857 C50.6543694,35.5918093 51.1078422,35.7209002 51.6043528,35.806962 C52.1008633,35.8930238 52.534476,35.9360541 52.9052039,35.9360541 C53.2891721,35.9360541 53.6234842,35.8797837 53.9081502,35.7672413 C54.1928163,35.6546989 54.3351472,35.4660278 54.3351472,35.2012221 C54.3351472,34.9628971 54.2093664,34.794086 53.957801,34.6947839 C53.7062357,34.5954818 53.3288933,34.4531509 52.8257626,34.267787 C52.4153139,34.1221439 52.0313515,33.9599528 51.6738639,33.781209 C51.3163763,33.6024652 51.0085444,33.3906239 50.7503589,33.1456787 C50.4921734,32.9007335 50.2902621,32.6193817 50.144619,32.301615 C49.9989759,31.9838482 49.9261555,31.6131259 49.9261555,31.1894369 C49.9261555,30.1302144 50.2836377,29.3490495 50.9986129,28.8459188 C51.7135881,28.3427881 52.647014,28.0912265 53.7989185,28.0912265 C54.4079714,28.0912265 54.9640549,28.1474969 55.4671856,28.2600393 C55.9703163,28.3725817 56.4535793,28.5612528 56.9169892,28.8260585 L56.4800621,30.9113924 C56.1225745,30.752509 55.7452321,30.6234182 55.3480237,30.5241161 C54.9508152,30.424814 54.5337526,30.3751637 54.0968233,30.3751637 C53.7128551,30.3751637 53.4182633,30.4115739 53.2130389,30.4843954 C53.0078146,30.557217 52.9052039,30.7061679 52.9052039,30.9312527 C52.9052039,31.1563375 53.0276747,31.3185285 53.2726199,31.4178306 C53.5175651,31.5171327 53.8320171,31.6396035 54.2159852,31.7852466 C54.5072714,31.8911688 54.8316535,32.0202596 55.1891411,32.1725229 C55.5466287,32.3247861 55.8809408,32.5200773 56.1920874,32.7584024 C56.503234,32.9967275 56.7647256,33.2846993 56.9765701,33.6223265 C57.1884146,33.9599536 57.2943353,34.3670862 57.2943353,34.8437363 Z M63.7886609,37.0680925 C63.4841345,37.372619 63.0703819,37.6407306 62.5473908,37.8724356 C62.0243996,38.1041405 61.4517661,38.2199912 60.8294728,38.2199912 C60.3925435,38.2199912 60.0019611,38.1471708 59.6577138,38.0015277 C59.3134665,37.8558846 59.0254946,37.6572833 58.7937897,37.405718 C58.5620848,37.1541526 58.3833437,36.8595608 58.257561,36.5219336 C58.1317783,36.1843064 58.0688879,35.8235142 58.0688879,35.439546 C58.0688879,34.5392069 58.3502397,33.8606526 58.9129517,33.4038629 C59.4756636,32.9470732 60.2733786,32.6789615 61.3061206,32.5995198 C61.6900887,32.5730393 62.0972213,32.5531791 62.5275304,32.5399389 C62.9578396,32.5266986 63.338492,32.5134585 63.669499,32.5002182 L63.669499,32.182453 C63.669499,31.1232305 63.0803153,30.5936272 61.9019303,30.5936272 C61.4385204,30.5936272 60.9916676,30.6465875 60.5613585,30.7525098 C60.1310493,30.858432 59.7371568,31.004073 59.3796692,31.1894369 L58.8037199,28.9849411 C59.2671297,28.7201354 59.8132832,28.5049841 60.4421965,28.3394806 C61.0711099,28.173977 61.7562842,28.0912265 62.4977399,28.0912265 C63.8614889,28.0912265 64.9273156,28.4453987 65.6952519,29.1537538 C66.4631883,29.8621089 66.8471507,30.9246255 66.8471507,32.3413356 L66.8471507,38.021388 L63.7886609,38.021388 L63.7886609,37.0680925 Z M62.0608128,36.1346573 C62.3653393,36.1346573 62.6533111,36.0949371 62.9247369,36.0154954 C63.1961627,35.9360537 63.4444142,35.830133 63.669499,35.6977302 L63.669499,34.2479266 C63.3517322,34.2744072 63.0670705,34.3041974 62.8155051,34.3372981 C62.5639398,34.3703988 62.3189982,34.400189 62.0806732,34.4266695 C61.4318994,34.5061112 61.1075173,34.8106331 61.1075173,35.3402444 C61.1075173,35.5785695 61.1902679,35.7705507 61.3557714,35.9161938 C61.5212749,36.0618369 61.7562864,36.1346573 62.0608128,36.1346573 Z M77.7107474,28.2898298 L77.7107474,38.021388 L74.6522576,38.021388 L74.6522576,36.7503273 C74.2815297,37.3064191 73.8644671,37.6903815 73.4010573,37.902226 C72.9376474,38.1140706 72.4477644,38.2199912 71.9313934,38.2199912 C71.2826196,38.2199912 70.7364662,38.0842804 70.2929167,37.8128546 C69.8493673,37.5414288 69.4918851,37.1806366 69.2204593,36.730467 C68.9490335,36.2802974 68.7537423,35.7606242 68.6345798,35.1714316 C68.5154172,34.5822391 68.4558369,33.9632652 68.4558369,33.3144915 L68.4558369,28.2898298 L71.6334885,28.2898298 L71.6334885,33.3740724 C71.6334885,34.1817296 71.7460292,34.7742233 71.971114,35.1515713 C72.1961988,35.5289193 72.5669211,35.7175905 73.0832921,35.7175905 C73.4142991,35.7175905 73.702271,35.6447701 73.9472162,35.499127 C74.1921614,35.3534839 74.3874526,35.1747428 74.5330957,34.9628983 L74.5330957,28.2898298 L77.7107474,28.2898298 Z M82.6361075,35.0423395 C82.6361075,35.2939049 82.6890678,35.4891961 82.7949901,35.6282191 C82.9009123,35.767242 83.1061336,35.8367525 83.4106601,35.8367525 C83.596024,35.8367525 83.8211054,35.8168923 84.0859111,35.7771715 L84.1852127,37.961807 C83.920407,38.0412487 83.6191952,38.1041391 83.281568,38.1504801 C82.9439408,38.1968211 82.5963886,38.2199912 82.238901,38.2199912 C81.7092898,38.2199912 81.265747,38.1405507 80.9082594,37.9816673 C80.5507718,37.822784 80.26611,37.6109426 80.0542655,37.346137 C79.842421,37.0813314 79.69016,36.7801195 79.5974781,36.4424923 C79.5047961,36.1048651 79.4584558,35.757313 79.4584558,35.3998254 L79.4584558,24 L82.6361075,24 L82.6361075,35.0423395 Z M84.0461905,28.2898298 L85.5357147,28.2898298 L85.5357147,25.7477084 L88.7133663,25.7477084 L88.7133663,28.2898298 L91.5136719,28.2898298 L91.5136719,30.7127891 L88.7133663,30.7127891 L88.7133663,34.5259712 C88.7133663,34.9099393 88.7961169,35.2111512 88.9616204,35.4296158 C89.1271239,35.6480805 89.4283358,35.7573112 89.8652651,35.7573112 C90.1035901,35.7573112 90.3452217,35.7407611 90.5901669,35.7076604 C90.8351121,35.6745597 91.0701235,35.6249094 91.2952083,35.5587079 L91.5136719,37.7632038 C91.1959051,37.9088469 90.8053227,38.0213876 90.3419128,38.1008293 C89.878503,38.180271 89.4151001,38.2199912 88.9516902,38.2199912 C88.329397,38.2199912 87.8031037,38.1240006 87.3727945,37.9320165 C86.9424854,37.7400325 86.5916232,37.4818508 86.3201974,37.1574639 C86.0487717,36.833077 85.8501704,36.4491146 85.7243877,36.0055652 C85.5986051,35.5620158 85.5357147,35.0886828 85.5357147,34.5855521 L85.5357147,30.7127891 L84.0461905,30.7127891 L84.0461905,28.2898298 Z" id="moonsault-copy-27"></path>
        </g>
    </g>
</svg>