<?xml version="1.0" encoding="UTF-8" standalone="no"?>
<svg width="384px" height="112px" viewBox="0 0 384 112" version="1.1" xmlns="http://www.w3.org/2000/svg" xmlns:xlink="http://www.w3.org/1999/xlink" xmlns:sketch="http://www.bohemiancoding.com/sketch/ns">
    <title>logo</title>
    <description>Created with Sketch (http://www.bohemiancoding.com/sketch)</description>
    <defs></defs>
    <g id="Page-1" stroke="none" stroke-width="1" fill="none" fill-rule="evenodd" sketch:type="MSPage">
        <g id="Group" sketch:type="MSLayerGroup" fill="#FFFFFF">
            <path d="M131.016,78.408 C131.016,79.0053363 130.890001,79.5466642 130.638,80.032 C130.385999,80.5173358 130.036002,80.9279983 129.588,81.264 C129.139998,81.6000017 128.608003,81.8613324 127.992,82.048 C127.375997,82.2346676 126.704004,82.328 125.976,82.328 C125.658665,82.328 125.318002,82.3093335 124.954,82.272 C124.589998,82.2346665 124.230668,82.1833337 123.876,82.118 C123.521332,82.0526663 123.180668,81.9686672 122.854,81.866 C122.527332,81.7633328 122.242668,81.6560006 122,81.544 L122.336,80.032 C122.840003,80.2560011 123.390664,80.4426659 123.988,80.592 C124.585336,80.7413341 125.238663,80.816 125.948,80.816 C126.844004,80.816 127.604664,80.6293352 128.23,80.256 C128.855336,79.8826648 129.168,79.3226704 129.168,78.576 C129.168,78.2026648 129.084001,77.8853346 128.916,77.624 C128.747999,77.3626654 128.528668,77.1293344 128.258,76.924 C127.987332,76.7186656 127.674668,76.5366675 127.32,76.378 C126.965332,76.2193325 126.601335,76.0560008 126.228,75.888 C125.779998,75.7013324 125.318002,75.4913345 124.842,75.258 C124.365998,75.0246655 123.932002,74.7540015 123.54,74.446 C123.147998,74.1379985 122.826001,73.7786687 122.574,73.368 C122.321999,72.9573313 122.196,72.4720028 122.196,71.912 C122.196,71.3146637 122.312665,70.7966689 122.546,70.358 C122.779334,69.9193311 123.101331,69.5553348 123.512,69.266 C123.922669,68.9766652 124.398664,68.7620007 124.94,68.622 C125.481336,68.4819993 126.059997,68.412 126.676,68.412 C127.404004,68.412 128.094663,68.4959992 128.748,68.664 C129.401337,68.8320008 129.979997,69.0466654 130.484,69.308 L130.12,70.82 C129.578664,70.5399986 129.01867,70.3206675 128.44,70.162 C127.86133,70.0033325 127.273336,69.924 126.676,69.924 C125.891996,69.924 125.257336,70.0639986 124.772,70.344 C124.286664,70.6240014 124.044,71.0906634 124.044,71.744 C124.044,72.0986684 124.127999,72.3926655 124.296,72.626 C124.464001,72.8593345 124.678665,73.0693324 124.94,73.256 C125.201335,73.4426676 125.495332,73.6059993 125.822,73.746 C126.148668,73.8860007 126.479998,74.0399992 126.816,74.208 C127.189335,74.3946676 127.618664,74.5953323 128.104,74.81 C128.589336,75.0246677 129.046665,75.2953317 129.476,75.622 C129.905335,75.9486683 130.269332,76.3359978 130.568,76.784 C130.866668,77.2320022 131.016,77.7733302 131.016,78.408 Z M152.108,75.384 C152.108,76.2986712 151.972668,77.1759958 151.702,78.016 C151.431332,78.8560042 151.030003,79.5933302 150.498,80.228 C149.965997,80.8626698 149.308004,81.3713314 148.524,81.754 C147.739996,82.1366686 146.844005,82.328 145.836,82.328 C144.827995,82.328 143.932004,82.1366686 143.148,81.754 C142.363996,81.3713314 141.706003,80.8626698 141.174,80.228 C140.641997,79.5933302 140.240668,78.8560042 139.97,78.016 C139.699332,77.1759958 139.564,76.2986712 139.564,75.384 C139.564,74.4693288 139.699332,73.5873376 139.97,72.738 C140.240668,71.8886624 140.641997,71.1466698 141.174,70.512 C141.706003,69.8773302 142.363996,69.3686686 143.148,68.986 C143.932004,68.6033314 144.827995,68.412 145.836,68.412 C146.844005,68.412 147.739996,68.6033314 148.524,68.986 C149.308004,69.3686686 149.965997,69.8773302 150.498,70.512 C151.030003,71.1466698 151.431332,71.8886624 151.702,72.738 C151.972668,73.5873376 152.108,74.4693288 152.108,75.384 Z M150.232,75.384 C150.232,74.6373296 150.138668,73.9280034 149.952,73.256 C149.765332,72.5839966 149.490002,72.0053358 149.126,71.52 C148.761998,71.0346642 148.304669,70.6473348 147.754,70.358 C147.203331,70.0686652 146.564004,69.924 145.836,69.924 C145.107996,69.924 144.468669,70.0686652 143.918,70.358 C143.367331,70.6473348 142.910002,71.0346642 142.546,71.52 C142.181998,72.0053358 141.906668,72.5839966 141.72,73.256 C141.533332,73.9280034 141.44,74.6373296 141.44,75.384 C141.44,76.1493372 141.533332,76.8586634 141.72,77.512 C141.906668,78.1653366 142.181998,78.7393309 142.546,79.234 C142.910002,79.7286691 143.367331,80.1159986 143.918,80.396 C144.468669,80.6760014 145.107996,80.816 145.836,80.816 C146.564004,80.816 147.203331,80.6760014 147.754,80.396 C148.304669,80.1159986 148.761998,79.7286691 149.126,79.234 C149.490002,78.7393309 149.765332,78.1653366 149.952,77.512 C150.138668,76.8586634 150.232,76.1493372 150.232,75.384 Z M162.616,82.048 L162.616,70.232 L160.18,70.232 L160.18,68.692 L162.616,68.692 L162.616,67.88 C162.616,63.9599804 164.25865,62 167.544,62 C167.936002,62 168.318665,62.0279997 168.692,62.084 C169.065335,62.1400003 169.401332,62.2239994 169.7,62.336 L169.504,63.848 C169.261332,63.7546662 168.981335,63.6846669 168.664,63.638 C168.346665,63.5913331 168.029335,63.568 167.712,63.568 C166.554661,63.568 165.728669,63.9086633 165.234,64.59 C164.739331,65.2713367 164.492,66.349326 164.492,67.824 L164.492,68.692 L168.552,68.692 L168.552,70.232 L164.492,70.232 L164.492,82.048 L162.616,82.048 Z M175.616,68.692 L178.052,68.692 L178.052,65.136 L179.928,65.136 L179.928,68.692 L184.464,68.692 L184.464,70.232 L179.928,70.232 L179.928,77.652 C179.928,78.1560025 179.956,78.603998 180.012,78.996 C180.068,79.388002 180.179999,79.719332 180.348,79.99 C180.516001,80.260668 180.744665,80.4613327 181.034,80.592 C181.323335,80.7226673 181.701331,80.788 182.168,80.788 C182.560002,80.788 182.947331,80.750667 183.33,80.676 C183.712669,80.601333 184.062665,80.5080006 184.38,80.396 L184.548,81.824 C184.267999,81.9546673 183.866669,82.0713328 183.344,82.174 C182.821331,82.2766672 182.317336,82.328 181.832,82.328 C181.122663,82.328 180.530002,82.2113345 180.054,81.978 C179.577998,81.7446655 179.190668,81.4180021 178.892,80.998 C178.593332,80.5779979 178.378667,80.0786696 178.248,79.5 C178.117333,78.9213304 178.052,78.2960034 178.052,77.624 L178.052,70.232 L175.616,70.232 L175.616,68.692 Z M206.592,79.696 L209.644,68.692 L211.52,68.692 L207.488,82.048 L205.724,82.048 L201.888,70.4 L198.052,82.048 L196.288,82.048 L192.256,68.692 L194.132,68.692 L197.184,79.696 L200.824,68.692 L202.952,68.692 L206.592,79.696 Z M227.992,80.228 C227.786666,80.4520011 227.530002,80.6899987 227.222,80.942 C226.913998,81.1940013 226.564002,81.4226656 226.172,81.628 C225.779998,81.8333344 225.346002,82.0013327 224.87,82.132 C224.393998,82.2626673 223.894669,82.328 223.372,82.328 C222.158661,82.328 221.23467,81.9920034 220.6,81.32 C219.96533,80.6479966 219.648,79.7800053 219.648,78.716 C219.648,78.0813302 219.764665,77.530669 219.998,77.064 C220.231334,76.597331 220.553331,76.2100015 220.964,75.902 C221.374669,75.5939985 221.864664,75.3560008 222.434,75.188 C223.003336,75.0199992 223.623997,74.9173335 224.296,74.88 C224.893336,74.8426665 225.499997,74.8146668 226.116,74.796 C226.732003,74.7773332 227.347997,74.7586668 227.964,74.74 L227.964,73.872 C227.964,72.5279933 227.688669,71.5433365 227.138,70.918 C226.587331,70.2926635 225.733339,69.98 224.576,69.98 C223.903997,69.98 223.283336,70.0546659 222.714,70.204 C222.144664,70.3533341 221.589336,70.5959983 221.048,70.932 L220.572,69.504 C221.094669,69.1866651 221.710663,68.9253344 222.42,68.72 C223.129337,68.5146656 223.931996,68.412 224.828,68.412 C225.556004,68.412 226.227997,68.5193323 226.844,68.734 C227.460003,68.9486677 227.987331,69.2799978 228.426,69.728 C228.864669,70.1760022 229.209999,70.7359966 229.462,71.408 C229.714001,72.0800034 229.84,72.8733288 229.84,73.788 L229.84,82.048 L227.992,82.048 L227.992,80.228 Z M223.792,80.872 C224.594671,80.872 225.359996,80.6666687 226.088,80.256 C226.816004,79.8453313 227.441331,79.3413363 227.964,78.744 L227.964,76.084 C227.347997,76.1026668 226.746003,76.1306665 226.158,76.168 C225.569997,76.2053335 225.024003,76.2426665 224.52,76.28 C223.642662,76.3733338 222.919336,76.6019982 222.35,76.966 C221.780664,77.3300018 221.496,77.9133293 221.496,78.716 C221.496,80.1533405 222.261326,80.872 223.792,80.872 Z M247.236,70.232 L246.704,70.232 C245.658661,70.232 244.734671,70.4466645 243.932,70.876 C243.129329,71.3053355 242.485336,71.9679955 242,72.864 L242,82.048 L240.124,82.048 L240.124,68.692 L241.888,68.692 L241.888,71.352 C242.242668,70.5119958 242.802663,69.8353359 243.568,69.322 C244.333337,68.8086641 245.247995,68.552 246.312,68.552 C246.685335,68.552 246.993332,68.5986662 247.236,68.692 L247.236,70.232 Z M260.628,68.412 C261.505338,68.412 262.256664,68.5566652 262.882,68.846 C263.507336,69.1353348 264.025331,69.5319975 264.436,70.036 C264.846669,70.5400025 265.145332,71.1279966 265.332,71.8 C265.518668,72.4720034 265.612,73.1906628 265.612,73.956 C265.612,74.5533363 265.556001,75.1693302 265.444,75.804 L256.652,75.804 C256.670667,77.4466749 257.062663,78.697329 257.828,79.556 C258.593337,80.414671 259.741326,80.844 261.272,80.844 C261.981337,80.844 262.671997,80.7646675 263.344,80.606 C264.016003,80.4473325 264.622664,80.2373346 265.164,79.976 L265.472,81.376 C264.89333,81.6560014 264.216671,81.8846658 263.442,82.062 C262.667329,82.2393342 261.878671,82.328 261.076,82.328 C260.011995,82.328 259.083337,82.1506684 258.29,81.796 C257.496663,81.4413316 256.838669,80.9513365 256.316,80.326 C255.793331,79.7006635 255.401335,78.9633376 255.14,78.114 C254.878665,77.2646624 254.748,76.3546715 254.748,75.384 C254.748,74.375995 254.883332,73.4473376 255.154,72.598 C255.424668,71.7486624 255.811997,71.0113365 256.316,70.386 C256.820003,69.7606635 257.435996,69.2753351 258.164,68.93 C258.892004,68.5846649 259.713329,68.412 260.628,68.412 Z M260.544,69.84 C259.927997,69.84 259.382002,69.9706654 258.906,70.232 C258.429998,70.4933346 258.028668,70.8339979 257.702,71.254 C257.375332,71.6740021 257.123334,72.1499973 256.946,72.682 C256.768666,73.2140027 256.670667,73.7599972 256.652,74.32 L263.82,74.32 C263.932001,73.0319936 263.717336,71.9633376 263.176,71.114 C262.634664,70.2646624 261.757339,69.84 260.544,69.84 Z" id="software" sketch:type="MSShapeGroup"></path>
            <g id="moonsault" transform="translate(120.000000, 24.000000)" sketch:type="MSShapeGroup">
                <path d="M248.882812,30.6171875 C248.007808,31.0390646 246.800789,31.4453105 245.261719,31.8359375 C243.722649,32.2265645 242.250007,32.421875 240.84375,32.421875 C234.765595,32.421875 231.726562,29.4531547 231.726562,23.515625 L231.726562,14 L227.90625,14 L227.90625,12.5234375 L239.226562,0.9921875 L240.1875,0.9921875 L240.1875,8.140625 L248.25,8.140625 L248.25,14 L240.1875,14 L240.1875,21.640625 C240.1875,22.5312545 240.242187,23.2499973 240.351562,23.796875 C240.460938,24.3437527 240.769529,24.8007794 241.277344,25.1679688 C241.785159,25.5351581 242.554682,25.71875 243.585938,25.71875 C244.929694,25.71875 246.695302,25.1562556 248.882812,24.03125 L248.882812,30.6171875 Z"></path>
                <path d="M226.25,32 L217.789062,32 L217.789062,-0.484375 L226.25,-0.484375 L226.25,32 Z" id="Path"></path>
                <path d="M213.976562,32 L205.515625,32 L205.515625,28.6015625 C204.328119,29.8828189 203.082038,30.8398406 201.777344,31.4726562 C200.47265,32.1054719 198.906259,32.421875 197.078125,32.421875 C193.468732,32.421875 191.132818,31.3711043 190.070312,29.2695312 C189.007807,27.1679582 188.476562,24.7968882 188.476562,22.15625 L188.476562,8.140625 L196.9375,8.140625 L196.9375,21.03125 C196.9375,22.3281315 197.152342,23.4648389 197.582031,24.4414062 C198.011721,25.4179736 198.945305,25.90625 200.382812,25.90625 C201.617194,25.90625 202.593746,25.554691 203.3125,24.8515625 C204.031254,24.148434 204.765621,23.2500055 205.515625,22.15625 L205.515625,8.140625 L213.976562,8.140625 L213.976562,32 Z" id="Path"></path>
                <path d="M185.5,30.8046875 C184.265619,31.2890649 183.125005,31.679686 182.078125,31.9765625 C181.031245,32.273439 179.773445,32.421875 178.304688,32.421875 C176.914056,32.421875 175.945315,32.1757837 175.398438,31.6835938 C174.85156,31.1914038 174.460939,30.5937535 174.226562,29.890625 C173.320308,30.6250037 172.312506,31.2304664 171.203125,31.7070312 C170.093744,32.1835961 168.640634,32.421875 166.84375,32.421875 C165.109366,32.421875 163.707037,32.1210968 162.636719,31.5195312 C161.566401,30.9179657 160.816408,30.1601608 160.386719,29.2460938 C159.957029,28.3320267 159.742188,27.3906298 159.742188,26.421875 C159.742188,24.9531177 160.113278,23.7382861 160.855469,22.7773438 C161.59766,21.8164014 162.593744,21.031253 163.84375,20.421875 C165.093756,19.812497 166.74999,19.1796908 168.8125,18.5234375 C169.984381,18.1484356 170.871091,17.8632822 171.472656,17.6679688 C172.074222,17.4726553 172.523436,17.320313 172.820312,17.2109375 C173.117189,17.101562 173.429686,16.9609384 173.757812,16.7890625 C173.757812,15.6328067 173.52344,14.7265658 173.054688,14.0703125 C172.585935,13.4140592 171.57032,13.0859375 170.007812,13.0859375 C168.164053,13.0859375 166.453133,13.4921834 164.875,14.3046875 C163.296867,15.1171916 161.851569,16.1640561 160.539062,17.4453125 L160.539062,10.9765625 C161.585943,10.2265587 162.718744,9.61328363 163.9375,9.13671875 C165.156256,8.66015387 166.429681,8.30468867 167.757812,8.0703125 C169.085944,7.83593633 170.429681,7.71875 171.789062,7.71875 C175.242205,7.71875 177.839835,8.38671207 179.582031,9.72265625 C181.324227,11.0586004 182.195312,12.8984258 182.195312,15.2421875 L182.195312,24.453125 C182.195312,25.3281294 182.277343,25.9804666 182.441406,26.4101562 C182.60547,26.8398459 182.906248,27.0546875 183.34375,27.0546875 C183.875003,27.0546875 184.593745,26.8281273 185.5,26.375 L185.5,30.8046875 Z M173.757812,26.234375 L173.757812,20.5859375 C171.757803,21.3984416 170.29688,22.128903 169.375,22.7773438 C168.45312,23.4257845 167.992188,24.304682 167.992188,25.4140625 C167.992188,26.2109415 168.222654,26.8203104 168.683594,27.2421875 C169.144534,27.6640646 169.679684,27.875 170.289062,27.875 C170.86719,27.875 171.441403,27.7148454 172.011719,27.3945312 C172.582034,27.0742171 173.16406,26.6875023 173.757812,26.234375 Z" id="Path"></path>
                <path d="M156.179688,25.0390625 C156.179688,27.2265734 155.378914,29.0038994 153.777344,30.3710938 C152.175773,31.7382881 149.796891,32.421875 146.640625,32.421875 C144.874991,32.421875 143.304694,32.2617204 141.929688,31.9414062 C140.554681,31.6210921 139.054696,31.1640655 137.429688,30.5703125 L137.429688,24.5703125 C138.85157,25.3828166 140.085932,25.9999979 141.132812,26.421875 C142.179693,26.8437521 143.328119,27.0546875 144.578125,27.0546875 C146.687511,27.0546875 147.742188,26.4765683 147.742188,25.3203125 C147.742188,24.9296855 147.589845,24.5820328 147.285156,24.2773438 C146.980467,23.9726547 146.449223,23.6289082 145.691406,23.2460938 C144.93359,22.8632793 143.921881,22.4062527 142.65625,21.875 C141.093742,21.1874966 139.76563,20.2656308 138.671875,19.109375 C137.57812,17.9531192 137.03125,16.5390709 137.03125,14.8671875 C137.03125,13.6796816 137.394528,12.539068 138.121094,11.4453125 C138.84766,10.351557 139.945305,9.45703473 141.414062,8.76171875 C142.88282,8.06640277 144.65624,7.71875 146.734375,7.71875 C147.234377,7.71875 147.87109,7.7539059 148.644531,7.82421875 C149.417973,7.8945316 150.394525,8.07812352 151.574219,8.375 C152.753912,8.67187648 153.874995,9.09374727 154.9375,9.640625 L154.9375,15.4765625 C154.437498,15.179686 154.019533,14.9296885 153.683594,14.7265625 C153.347655,14.5234365 152.89844,14.2968762 152.335938,14.046875 C151.773435,13.7968738 151.113285,13.5742197 150.355469,13.3789062 C149.597652,13.1835928 148.820316,13.0859375 148.023438,13.0859375 C147.054683,13.0859375 146.390627,13.2734356 146.03125,13.6484375 C145.671873,14.0234394 145.492188,14.3984356 145.492188,14.7734375 C145.492188,15.1640645 145.679686,15.5273421 146.054688,15.8632812 C146.429689,16.1992204 147.265619,16.617185 148.5625,17.1171875 C150.437509,17.8359411 151.937494,18.574215 153.0625,19.3320312 C154.187506,20.0898475 154.988279,20.9218705 155.464844,21.828125 C155.941409,22.7343795 156.179688,23.8046813 156.179688,25.0390625 L156.179688,25.0390625 Z" id="Path"></path>
                <path d="M133.460938,32 L125.023438,32 L125.023438,19.1328125 C125.023438,17.8203059 124.808596,16.6757861 124.378906,15.6992188 C123.949217,14.7226514 123.00782,14.234375 121.554688,14.234375 C120.867184,14.234375 120.261721,14.36328 119.738281,14.6210938 C119.214841,14.8789075 118.746096,15.2109355 118.332031,15.6171875 C117.917967,16.0234395 117.570314,16.4140606 117.289062,16.7890625 C117.007811,17.1640644 116.718751,17.5624979 116.421875,17.984375 L116.421875,32 L107.984375,32 L107.984375,8.140625 L116.421875,8.140625 L116.421875,11.5625 C117.750007,10.1406179 119.082025,9.1445341 120.417969,8.57421875 C121.753913,8.0039034 123.242179,7.71875 124.882812,7.71875 C130.601591,7.71875 133.460938,11.1405908 133.460938,17.984375 L133.460938,32 Z" id="Path"></path>
                <path d="M104.601562,20.046875 C104.601562,22.4218869 104.085943,24.5390532 103.054688,26.3984375 C102.023432,28.2578218 100.480479,29.7265571 98.4257812,30.8046875 C96.3710835,31.8828179 93.8672023,32.421875 90.9140625,32.421875 C87.9609227,32.421875 85.4570415,31.8828179 83.4023438,30.8046875 C81.347646,29.7265571 79.8085989,28.2578218 78.7851562,26.3984375 C77.7617136,24.5390532 77.25,22.4218869 77.25,20.046875 C77.25,18.249991 77.5351534,16.6171948 78.1054688,15.1484375 C78.6757841,13.6796802 79.5429629,12.3789119 80.7070312,11.2460938 C81.8710996,10.1132756 83.304679,9.24219055 85.0078125,8.6328125 C86.710946,8.02343445 88.6796763,7.71875 90.9140625,7.71875 C93.1640738,7.71875 95.1523351,8.02734066 96.8789062,8.64453125 C98.6054774,9.26172184 100.035151,10.1249945 101.167969,11.234375 C102.300787,12.3437555 103.156247,13.6406176 103.734375,15.125 C104.312503,16.6093824 104.601562,18.249991 104.601562,20.046875 Z M95.71875,20.046875 C95.71875,18.1562405 95.3085979,16.6757866 94.4882812,15.6054688 C93.6679646,14.5351509 92.4765703,14 90.9140625,14 C89.3671798,14 88.1835979,14.5351509 87.3632812,15.6054688 C86.5429646,16.6757866 86.1328125,18.1562405 86.1328125,20.046875 C86.1328125,21.9218844 86.5468709,23.4062445 87.375,24.5 C88.2031291,25.5937555 89.3828048,26.140625 90.9140625,26.140625 C92.4765703,26.140625 93.6679646,25.5976617 94.4882812,24.5117188 C95.3085979,23.4257758 95.71875,21.9375095 95.71875,20.046875 Z" id="Path"></path>
                <path d="M73.875,20.046875 C73.875,22.4218869 73.3593802,24.5390532 72.328125,26.3984375 C71.2968698,28.2578218 69.7539165,29.7265571 67.6992188,30.8046875 C65.644521,31.8828179 63.1406398,32.421875 60.1875,32.421875 C57.2343602,32.421875 54.730479,31.8828179 52.6757812,30.8046875 C50.6210835,29.7265571 49.0820364,28.2578218 48.0585938,26.3984375 C47.0351511,24.5390532 46.5234375,22.4218869 46.5234375,20.046875 C46.5234375,18.249991 46.8085909,16.6171948 47.3789062,15.1484375 C47.9492216,13.6796802 48.8164004,12.3789119 49.9804688,11.2460938 C51.1445371,10.1132756 52.5781165,9.24219055 54.28125,8.6328125 C55.9843835,8.02343445 57.9531138,7.71875 60.1875,7.71875 C62.4375113,7.71875 64.4257726,8.02734066 66.1523438,8.64453125 C67.8789149,9.26172184 69.3085881,10.1249945 70.4414062,11.234375 C71.5742244,12.3437555 72.4296846,13.6406176 73.0078125,15.125 C73.5859404,16.6093824 73.875,18.249991 73.875,20.046875 Z M64.9921875,20.046875 C64.9921875,18.1562405 64.5820354,16.6757866 63.7617188,15.6054688 C62.9414021,14.5351509 61.7500078,14 60.1875,14 C58.6406173,14 57.4570354,14.5351509 56.6367188,15.6054688 C55.8164021,16.6757866 55.40625,18.1562405 55.40625,20.046875 C55.40625,21.9218844 55.8203084,23.4062445 56.6484375,24.5 C57.4765666,25.5937555 58.6562423,26.140625 60.1875,26.140625 C61.7500078,26.140625 62.9414021,25.5976617 63.7617188,24.5117188 C64.5820354,23.4257758 64.9921875,21.9375095 64.9921875,20.046875 Z" id="Path"></path>
                <path d="M42.515625,32 L34.078125,32 L34.078125,19.2734375 C34.078125,17.5859291 33.800784,16.3242229 33.2460938,15.4882812 C32.6914035,14.6523396 31.812506,14.234375 30.609375,14.234375 C29.4374941,14.234375 28.4765662,14.5898402 27.7265625,15.3007812 C26.9765588,16.0117223 26.2265662,16.9062446 25.4765625,17.984375 L25.4765625,32 L17.0390625,32 L17.0390625,19.2734375 C17.0390625,17.6640545 16.7812526,16.4218794 16.265625,15.546875 C15.7499974,14.6718706 14.8359441,14.234375 13.5234375,14.234375 C12.8984344,14.234375 12.3242214,14.3593738 11.8007813,14.609375 C11.2773411,14.8593762 10.8515641,15.1406234 10.5234375,15.453125 C10.1953109,15.7656266 9.79687734,16.2265595 9.328125,16.8359375 C8.85937266,17.4453155 8.56250063,17.8281242 8.4375,17.984375 L8.4375,32 L0,32 L0,8.140625 L8.4375,8.140625 L8.4375,11.5625 C9.70313133,10.2187433 10.9921809,9.24219055 12.3046875,8.6328125 C13.6171941,8.02343445 15.1328039,7.71875 16.8515625,7.71875 C17.6640666,7.71875 18.4374963,7.79296801 19.171875,7.94140625 C19.9062537,8.08984449 20.6289027,8.3437482 21.3398438,8.703125 C22.0507848,9.0625018 22.6953096,9.55468437 23.2734375,10.1796875 C23.8515654,10.8046906 24.3124983,11.5312459 24.65625,12.359375 C26.0156318,10.8281173 27.4257739,9.67187891 28.8867188,8.890625 C30.3476636,8.10937109 32.0312405,7.71875 33.9375,7.71875 C35.8437595,7.71875 37.4413998,8.10155867 38.7304688,8.8671875 C40.0195377,9.63281633 40.9726532,10.738274 41.5898438,12.1835938 C42.2070343,13.6289135 42.515625,15.3828022 42.515625,17.4453125 L42.515625,32 Z" id="Path"></path>
            </g>
            <g id="mark-reversed" transform="translate(16.000000, 16.000000)" sketch:type="MSShapeGroup">
                <path d="M16,32 C24.8365564,32 32,24.8365564 32,16 C32,7.16344357 24.8365564,0 16,0 C7.16344357,0 0,7.16344357 0,16 C0,24.8365564 7.16344357,32 16,32 Z" id="new-moon" opacity="0.3"></path>
                <path d="M16,80 C24.8365564,80 32,72.8365564 32,64 C32,55.1634436 24.8365564,48 16,48 C7.16344357,48 0,55.1634436 0,64 C0,72.8365564 7.16344357,80 16,80 Z" id="half-bg" opacity="0.3"></path>
                <circle id="crescent-bg" opacity="0.3" cx="64" cy="16" r="16"></circle>
                <path d="M64,80 C72.8365564,80 80,72.8365564 80,64 C80,55.1634436 72.8365564,48 64,48 C55.1634436,48 48,55.1634436 48,64 C48,72.8365564 55.1634436,80 64,80 Z" id="fullmoon"></path>
                <path d="M15.5714286,76 C9.18070472,76 4,70.6274173 4,64 C4,57.3725827 9.18070472,52 15.5714286,52 C16.766102,52 17.9184901,52.1877506 19.0026532,52.5363516 C20.907644,55.8995973 22,59.8175072 22,64 C22,68.1824928 20.907644,72.1004027 19.0026532,75.4636484 C17.9184901,75.8122494 16.766102,76 15.5714286,76 Z" id="half"></path>
                <path d="M64.6,28.25 C57.6412118,28.25 52,22.7654885 52,16 C52,9.23451148 57.6412118,3.75 64.6,3.75 C65.2105926,3.75 65.8110412,3.7922254 66.3984249,3.87383654 C62.0951236,6.29472026 59.2,10.8186553 59.2,16 C59.2,21.1813447 62.0951236,25.7052797 66.3984249,28.1261635 C65.8110412,28.2077746 65.2105926,28.25 64.6,28.25 Z" id="crescent"></path>
            </g>
        </g>
    </g>
</svg>