<?xml version="1.0" encoding="UTF-8" standalone="no"?>
<svg width="154px" height="38px" viewBox="0 0 154 38" version="1.1" xmlns="http://www.w3.org/2000/svg" xmlns:xlink="http://www.w3.org/1999/xlink" class="logo">
    <g id="Page-1" stroke="none" stroke-width="1" fill="none" fill-rule="evenodd">
        <g id="Group-6" fill="#FFFFFF">
            <path d="M8,18 C12.4182782,18 16,14.4182782 16,10 C16,5.58172178 12.4182782,2 8,2 C3.58172178,2 0,5.58172178 0,10 C0,14.4182782 3.58172178,18 8,18 Z" id="new-moon-copy-3" opacity="0.3"></path>
            <path d="M28,38 C32.4182782,38 36,34.4182782 36,30 C36,25.5817218 32.4182782,22 28,22 C23.5817218,22 20,25.5817218 20,30 C20,34.4182782 23.5817218,38 28,38 Z" id="fullmoon-copy-2"></path>
            <g id="Group-2-Copy-2" transform="translate(0.000000, 22.000000)">
                <path d="M8,16 C12.4182782,16 16,12.4182782 16,8 C16,3.58172178 12.4182782,0 8,0 C3.58172178,0 0,3.58172178 0,8 C0,12.4182782 3.58172178,16 8,16 Z" id="half-bg" opacity="0.3"></path>
                <path d="M7.78571429,14 C4.59035236,14 2,11.3137087 2,8 C2,4.68629134 4.59035236,2 7.78571429,2 C8.38305102,2 8.95924506,2.09387532 9.50132659,2.26817582 C10.453822,3.94979867 11,5.9087536 11,8 C11,10.0912464 10.453822,12.0502013 9.50132659,13.7318242 C8.95924506,13.9061247 8.38305102,14 7.78571429,14 Z" id="half"></path>
            </g>
            <g id="Group-Copy-2" transform="translate(20.000000, 2.000000)">
                <circle id="crescent-bg" opacity="0.3" cx="8" cy="8" r="8"></circle>
                <path d="M8.3,14.125 C4.8206059,14.125 2,11.3827443 2,8 C2,4.61725574 4.8206059,1.875 8.3,1.875 C8.60529631,1.875 8.90552059,1.8961127 9.19921243,1.93691827 C7.04756178,3.14736013 5.6,5.40932766 5.6,8 C5.6,10.5906723 7.04756178,12.8526399 9.19921243,14.0630817 C8.90552059,14.1038873 8.60529631,14.125 8.3,14.125 Z" id="crescent"></path>
            </g>
            <path d="M56.304,8.024 C55.8879979,8.024 55.5200016,8.11999904 55.2,8.312 C54.8799984,8.50400096 54.6080011,8.72799872 54.384,8.984 C54.4480003,9.25600136 54.4919999,9.56799824 54.516,9.92 C54.5400001,10.2720018 54.552,10.6079984 54.552,10.928 L54.552,17 L50.712,17 L50.712,10.856 C50.712,9.87999512 50.5880012,9.16400228 50.34,8.708 C50.0919988,8.25199772 49.6560031,8.024 49.032,8.024 C48.631998,8.024 48.2840015,8.11199912 47.988,8.288 C47.6919985,8.46400088 47.4560009,8.67999872 47.28,8.936 L47.28,17 L43.44,17 L43.44,5.24 L47.136,5.24 L47.136,6.776 C47.5040018,6.1359968 47.987997,5.68000136 48.588,5.408 C49.188003,5.13599864 49.7999969,5 50.424,5 C51.1920038,5 51.8279975,5.15599844 52.332,5.468 C52.8360025,5.78000156 53.3119978,6.28799648 53.76,6.992 C54.5920042,5.66399336 55.8959911,5 57.672,5 C58.4400038,5 59.0879974,5.16399836 59.616,5.492 C60.1440026,5.82000164 60.5719984,6.25599728 60.9,6.8 C61.2280016,7.34400272 61.4639993,7.97199644 61.608,8.684 C61.7520007,9.39600356 61.824,10.1439961 61.824,10.928 L61.824,17 L57.984,17 L57.984,10.856 C57.984,9.87999512 57.8600012,9.16400228 57.612,8.708 C57.3639988,8.25199772 56.9280031,8.024 56.304,8.024 L56.304,8.024 Z M75.648,11.12 C75.648,11.9840043 75.5120013,12.7879963 75.24,13.532 C74.9679986,14.2760037 74.5680026,14.9239972 74.04,15.476 C73.5119973,16.0280028 72.8560039,16.4599984 72.072,16.772 C71.2879961,17.0840016 70.392005,17.24 69.384,17.24 C68.3759949,17.24 67.4800039,17.0840016 66.696,16.772 C65.9119961,16.4599984 65.2560026,16.0280028 64.728,15.476 C64.1999973,14.9239972 63.8000013,14.2760037 63.528,13.532 C63.2559986,12.7879963 63.12,11.9840043 63.12,11.12 C63.12,10.2559957 63.2559986,9.45200372 63.528,8.708 C63.8000013,7.96399628 64.1999973,7.31600276 64.728,6.764 C65.2560026,6.21199724 65.9119961,5.78000156 66.696,5.468 C67.4800039,5.15599844 68.3759949,5 69.384,5 C70.392005,5 71.2879961,5.15599844 72.072,5.468 C72.8560039,5.78000156 73.5119973,6.21199724 74.04,6.764 C74.5680026,7.31600276 74.9679986,7.96399628 75.24,8.708 C75.5120013,9.45200372 75.648,10.2559957 75.648,11.12 L75.648,11.12 Z M71.808,11.12 C71.808,10.7039979 71.7680004,10.300002 71.688,9.908 C71.6079996,9.51599804 71.4760009,9.16400156 71.292,8.852 C71.1079991,8.53999844 70.8600015,8.29200092 70.548,8.108 C70.2359984,7.92399908 69.8480023,7.832 69.384,7.832 C68.9199977,7.832 68.5320015,7.92399908 68.22,8.108 C67.9079984,8.29200092 67.6600009,8.53999844 67.476,8.852 C67.2919991,9.16400156 67.1600004,9.51599804 67.08,9.908 C66.9999996,10.300002 66.96,10.7039979 66.96,11.12 C66.96,11.5360021 66.9999996,11.939998 67.08,12.332 C67.1600004,12.724002 67.2919991,13.0759984 67.476,13.388 C67.6600009,13.7000016 67.9079984,13.9479991 68.22,14.132 C68.5320015,14.3160009 68.9199977,14.408 69.384,14.408 C69.8480023,14.408 70.2359984,14.3160009 70.548,14.132 C70.8600015,13.9479991 71.1079991,13.7000016 71.292,13.388 C71.4760009,13.0759984 71.6079996,12.724002 71.688,12.332 C71.7680004,11.939998 71.808,11.5360021 71.808,11.12 L71.808,11.12 Z M88.824,11.12 C88.824,11.9840043 88.6880013,12.7879963 88.416,13.532 C88.1439986,14.2760037 87.7440026,14.9239972 87.216,15.476 C86.6879973,16.0280028 86.0320039,16.4599984 85.248,16.772 C84.463996,17.0840016 83.568005,17.24 82.56,17.24 C81.5519949,17.24 80.6560039,17.0840016 79.872,16.772 C79.087996,16.4599984 78.4320026,16.0280028 77.904,15.476 C77.3759973,14.9239972 76.9760013,14.2760037 76.704,13.532 C76.4319986,12.7879963 76.296,11.9840043 76.296,11.12 C76.296,10.2559957 76.4319986,9.45200372 76.704,8.708 C76.9760013,7.96399628 77.3759973,7.31600276 77.904,6.764 C78.4320026,6.21199724 79.087996,5.78000156 79.872,5.468 C80.6560039,5.15599844 81.5519949,5 82.56,5 C83.568005,5 84.463996,5.15599844 85.248,5.468 C86.0320039,5.78000156 86.6879973,6.21199724 87.216,6.764 C87.7440026,7.31600276 88.1439986,7.96399628 88.416,8.708 C88.6880013,9.45200372 88.824,10.2559957 88.824,11.12 L88.824,11.12 Z M84.984,11.12 C84.984,10.7039979 84.9440004,10.300002 84.864,9.908 C84.7839996,9.51599804 84.6520009,9.16400156 84.468,8.852 C84.283999,8.53999844 84.0360015,8.29200092 83.724,8.108 C83.4119984,7.92399908 83.0240023,7.832 82.56,7.832 C82.0959976,7.832 81.7080015,7.92399908 81.396,8.108 C81.0839984,8.29200092 80.8360009,8.53999844 80.652,8.852 C80.467999,9.16400156 80.3360004,9.51599804 80.256,9.908 C80.1759996,10.300002 80.136,10.7039979 80.136,11.12 C80.136,11.5360021 80.1759996,11.939998 80.256,12.332 C80.3360004,12.724002 80.467999,13.0759984 80.652,13.388 C80.8360009,13.7000016 81.0839984,13.9479991 81.396,14.132 C81.7080015,14.3160009 82.0959976,14.408 82.56,14.408 C83.0240023,14.408 83.4119984,14.3160009 83.724,14.132 C84.0360015,13.9479991 84.283999,13.7000016 84.468,13.388 C84.6520009,13.0759984 84.7839996,12.724002 84.864,12.332 C84.9440004,11.939998 84.984,11.5360021 84.984,11.12 L84.984,11.12 Z M90.2879999,17 L90.2879999,5.24 L93.9839999,5.24 L93.9839999,6.776 C94.3520018,6.1359968 94.827997,5.68000136 95.4119999,5.408 C95.9960028,5.13599864 96.6159966,5 97.2719999,5 C98.0560038,5 98.7199972,5.16399836 99.2639999,5.492 C99.8080026,5.82000164 100.251998,6.25599728 100.596,6.8 C100.940002,7.34400272 101.187999,7.97199644 101.34,8.684 C101.492001,9.39600356 101.568,10.1439961 101.568,10.928 L101.568,17 L97.7279999,17 L97.7279999,10.856 C97.7279999,9.87999512 97.5760014,9.16400228 97.2719999,8.708 C96.9679984,8.25199772 96.504003,8.024 95.8799999,8.024 C95.4799979,8.024 95.1320014,8.11199912 94.8359999,8.288 C94.5399984,8.46400088 94.3040008,8.67999872 94.1279999,8.936 L94.1279999,17 L90.2879999,17 Z M112.056,13.16 C112.056,13.8160033 111.932001,14.3999974 111.684,14.912 C111.435999,15.4240026 111.084002,15.8519983 110.628,16.196 C110.171998,16.5400017 109.632003,16.7999991 109.008,16.976 C108.383997,17.1520009 107.696004,17.24 106.944,17.24 C106.303997,17.24 105.632003,17.1800006 104.928,17.06 C104.223996,16.9399994 103.584003,16.7600012 103.008,16.52 L103.536,13.856 C104.032002,14.064001 104.579997,14.2199995 105.18,14.324 C105.780003,14.4280005 106.303998,14.48 106.752,14.48 C107.216002,14.48 107.619998,14.4120007 107.964,14.276 C108.308002,14.1399993 108.48,13.9120016 108.48,13.592 C108.48,13.3039986 108.328001,13.1000006 108.024,12.98 C107.719998,12.8599994 107.264003,12.6880011 106.656,12.464 C106.159997,12.2879991 105.696002,12.0920011 105.264,11.876 C104.831998,11.6599989 104.460001,11.4040015 104.148,11.108 C103.835998,10.8119985 103.592001,10.4720019 103.416,10.088 C103.239999,9.70399808 103.152,9.25600256 103.152,8.744 C103.152,7.4639936 103.583996,6.52000304 104.448,5.912 C105.312004,5.30399696 106.439993,5 107.832,5 C108.568004,5 109.239997,5.06799932 109.848,5.204 C110.456003,5.34000068 111.039997,5.5679984 111.6,5.888 L111.072,8.408 C110.639998,8.21599904 110.184002,8.0600006 109.704,7.94 C109.223998,7.8199994 108.720003,7.76 108.192,7.76 C107.727998,7.76 107.372001,7.80399956 107.124,7.892 C106.875999,7.98000044 106.752,8.15999864 106.752,8.432 C106.752,8.70400136 106.899998,8.8999994 107.196,9.02 C107.492001,9.1400006 107.871998,9.28799912 108.336,9.464 C108.688002,9.59200064 109.079998,9.74799908 109.512,9.932 C109.944002,10.1160009 110.347998,10.3519986 110.724,10.64 C111.100002,10.9280014 111.415999,11.275998 111.672,11.684 C111.928001,12.092002 112.056,12.5839971 112.056,13.16 L112.056,13.16 Z M119.904,15.848 C119.535998,16.2160018 119.036003,16.5399986 118.404,16.82 C117.771997,17.1000014 117.080004,17.24 116.328,17.24 C115.799997,17.24 115.328002,17.1520009 114.912,16.976 C114.495998,16.7999991 114.148001,16.5600015 113.868,16.256 C113.587998,15.9519985 113.372001,15.596002 113.22,15.188 C113.067999,14.779998 112.992,14.3440023 112.992,13.88 C112.992,12.7919946 113.331996,11.9720028 114.012,11.42 C114.692003,10.8679972 115.655994,10.5440005 116.904,10.448 C117.368002,10.4159998 117.859997,10.3920001 118.38,10.376 C118.900002,10.3599999 119.359998,10.3440001 119.76,10.328 L119.76,9.944 C119.76,8.6639936 119.048007,8.024 117.624,8.024 C117.063997,8.024 116.524002,8.08799936 116.004,8.216 C115.483997,8.34400064 115.008002,8.51999888 114.576,8.744 L113.88,6.08 C114.440003,5.7599984 115.099996,5.500001 115.86,5.3 C116.620004,5.099999 117.447995,5 118.344,5 C119.992008,5 121.279995,5.42799572 122.208,6.284 C123.136005,7.14000428 123.6,8.42399144 123.6,10.136 L123.6,17 L119.904,17 L119.904,15.848 Z M117.816,14.72 C118.184002,14.72 118.531998,14.6720005 118.86,14.576 C119.188002,14.4799995 119.487999,14.3520008 119.76,14.192 L119.76,12.44 C119.375998,12.4720002 119.032001,12.5079998 118.728,12.548 C118.423998,12.5880002 118.128001,12.6239998 117.84,12.656 C117.055996,12.7520005 116.664,13.1199968 116.664,13.76 C116.664,14.0480014 116.763999,14.2799991 116.964,14.456 C117.164001,14.6320009 117.447998,14.72 117.816,14.72 L117.816,14.72 Z M136.628,5.24 L136.628,17 L132.932,17 L132.932,15.464 C132.483998,16.1360034 131.980003,16.5999987 131.42,16.856 C130.859997,17.1120013 130.268003,17.24 129.644,17.24 C128.859996,17.24 128.200003,17.0760016 127.664,16.748 C127.127997,16.4199984 126.696002,15.9840027 126.368,15.44 C126.039998,14.8959973 125.804001,14.2680036 125.66,13.556 C125.515999,12.8439964 125.444,12.0960039 125.444,11.312 L125.444,5.24 L129.284,5.24 L129.284,11.384 C129.284,12.3600049 129.419999,13.0759977 129.692,13.532 C129.964001,13.9880023 130.411997,14.216 131.036,14.216 C131.436002,14.216 131.783998,14.1280009 132.08,13.952 C132.376001,13.7759991 132.611999,13.5600013 132.788,13.304 L132.788,5.24 L136.628,5.24 Z M142.48,13.4 C142.48,13.7040015 142.543999,13.9399992 142.672,14.108 C142.800001,14.2760008 143.047998,14.36 143.416,14.36 C143.640001,14.36 143.911998,14.3360002 144.232,14.288 L144.352,16.928 C144.031998,17.0240005 143.668002,17.0999997 143.26,17.156 C142.851998,17.2120003 142.432002,17.24 142,17.24 C141.359997,17.24 140.824002,17.144001 140.392,16.952 C139.959998,16.759999 139.616001,16.5040016 139.36,16.184 C139.103999,15.8639984 138.92,15.500002 138.808,15.092 C138.695999,14.683998 138.64,14.2640022 138.64,13.832 L138.64,0.056 L142.48,0.056 L142.48,13.4 Z M144.084,5.24 L145.884,5.24 L145.884,2.168 L149.724,2.168 L149.724,5.24 L153.108,5.24 L153.108,8.168 L149.724,8.168 L149.724,12.776 C149.724,13.2400023 149.823999,13.6039987 150.024,13.868 C150.224001,14.1320013 150.587997,14.264 151.116,14.264 C151.404001,14.264 151.695998,14.2440002 151.992,14.204 C152.288001,14.1639998 152.571999,14.1040004 152.844,14.024 L153.108,16.688 C152.723998,16.8640009 152.252003,16.9999995 151.692,17.096 C151.131997,17.1920005 150.572003,17.24 150.012,17.24 C149.259996,17.24 148.624002,17.1240012 148.104,16.892 C147.583997,16.6599988 147.160002,16.348002 146.832,15.956 C146.503998,15.563998 146.264001,15.1000027 146.112,14.564 C145.959999,14.0279973 145.884,13.456003 145.884,12.848 L145.884,8.168 L144.084,8.168 L144.084,5.24 Z" id="moonsault-copy-2"></path>
            <path d="M48.048,31.92 C48.048,32.261335 47.9760007,32.5706653 47.832,32.848 C47.6879993,33.1253347 47.4880013,33.359999 47.232,33.552 C46.9759987,33.744001 46.6720018,33.8933328 46.32,34 C45.9679982,34.1066672 45.5840021,34.16 45.168,34.16 C44.9866658,34.16 44.792001,34.1493334 44.584,34.128 C44.375999,34.1066666 44.1706677,34.0773335 43.968,34.04 C43.7653323,34.0026665 43.5706676,33.954667 43.384,33.896 C43.1973324,33.837333 43.0346674,33.7760003 42.896,33.712 L43.088,32.848 C43.3760014,32.9760006 43.690665,33.0826662 44.032,33.168 C44.373335,33.2533338 44.7466646,33.296 45.152,33.296 C45.6640026,33.296 46.0986649,33.1893344 46.456,32.976 C46.8133351,32.7626656 46.992,32.4426688 46.992,32.016 C46.992,31.8026656 46.9440005,31.6213341 46.848,31.472 C46.7519995,31.3226659 46.6266674,31.1893339 46.472,31.072 C46.3173326,30.9546661 46.1386677,30.8506671 45.936,30.76 C45.7333323,30.6693329 45.5253344,30.5760005 45.312,30.48 C45.0559987,30.3733328 44.7920014,30.253334 44.52,30.12 C44.2479986,29.986666 44.0000011,29.8320009 43.776,29.656 C43.5519989,29.4799991 43.3680007,29.2746678 43.224,29.04 C43.0799993,28.8053322 43.008,28.5280016 43.008,28.208 C43.008,27.866665 43.074666,27.5706679 43.208,27.32 C43.341334,27.0693321 43.5253322,26.8613342 43.76,26.696 C43.9946678,26.5306658 44.2666651,26.4080004 44.576,26.328 C44.8853349,26.2479996 45.2159982,26.208 45.568,26.208 C45.9840021,26.208 46.3786648,26.2559995 46.752,26.352 C47.1253352,26.4480005 47.4559986,26.5706659 47.744,26.72 L47.536,27.584 C47.2266651,27.4239992 46.9066683,27.2986671 46.576,27.208 C46.2453317,27.1173329 45.909335,27.072 45.568,27.072 C45.1199978,27.072 44.7573347,27.1519992 44.48,27.312 C44.2026653,27.4720008 44.064,27.7386648 44.064,28.112 C44.064,28.3146677 44.1119995,28.482666 44.208,28.616 C44.3040005,28.749334 44.4266659,28.8693328 44.576,28.976 C44.7253341,29.0826672 44.8933324,29.1759996 45.08,29.256 C45.2666676,29.3360004 45.455999,29.4239995 45.648,29.52 C45.8613344,29.6266672 46.1066653,29.7413327 46.384,29.864 C46.6613347,29.9866673 46.9226654,30.1413324 47.168,30.328 C47.4133346,30.5146676 47.6213325,30.7359987 47.792,30.992 C47.9626675,31.2480013 48.048,31.5573315 48.048,31.92 L48.048,31.92 Z M59.872,30.192 C59.872,30.7146693 59.7946675,31.2159976 59.64,31.696 C59.4853326,32.1760024 59.2560016,32.5973315 58.952,32.96 C58.6479985,33.3226685 58.2720023,33.6133322 57.824,33.832 C57.3759978,34.0506678 56.8640029,34.16 56.288,34.16 C55.7119972,34.16 55.2000023,34.0506678 54.752,33.832 C54.3039978,33.6133322 53.9280016,33.3226685 53.624,32.96 C53.3199985,32.5973315 53.0906675,32.1760024 52.936,31.696 C52.7813326,31.2159976 52.704,30.7146693 52.704,30.192 C52.704,29.6693307 52.7813326,29.1653358 52.936,28.68 C53.0906675,28.1946642 53.3199985,27.7706685 53.624,27.408 C53.9280016,27.0453315 54.3039978,26.7546678 54.752,26.536 C55.2000023,26.3173322 55.7119972,26.208 56.288,26.208 C56.8640029,26.208 57.3759978,26.3173322 57.824,26.536 C58.2720023,26.7546678 58.6479985,27.0453315 58.952,27.408 C59.2560016,27.7706685 59.4853326,28.1946642 59.64,28.68 C59.7946675,29.1653358 59.872,29.6693307 59.872,30.192 L59.872,30.192 Z M58.8,30.192 C58.8,29.7653312 58.7466672,29.3600019 58.64,28.976 C58.5333328,28.5919981 58.3760011,28.2613347 58.168,27.984 C57.959999,27.7066653 57.6986683,27.4853342 57.384,27.32 C57.0693318,27.1546658 56.7040021,27.072 56.288,27.072 C55.871998,27.072 55.5066683,27.1546658 55.192,27.32 C54.8773318,27.4853342 54.6160011,27.7066653 54.408,27.984 C54.199999,28.2613347 54.0426672,28.5919981 53.936,28.976 C53.8293328,29.3600019 53.776,29.7653312 53.776,30.192 C53.776,30.6293355 53.8293328,31.0346648 53.936,31.408 C54.0426672,31.7813352 54.199999,32.1093319 54.408,32.392 C54.6160011,32.6746681 54.8773318,32.8959992 55.192,33.056 C55.5066683,33.2160008 55.871998,33.296 56.288,33.296 C56.7040021,33.296 57.0693318,33.2160008 57.384,33.056 C57.6986683,32.8959992 57.959999,32.6746681 58.168,32.392 C58.3760011,32.1093319 58.5333328,31.7813352 58.64,31.408 C58.7466672,31.0346648 58.8,30.6293355 58.8,30.192 L58.8,30.192 Z M65.6480001,34 L65.6480001,27.248 L64.2560001,27.248 L64.2560001,26.368 L65.6480001,26.368 L65.6480001,25.904 C65.6480001,23.6639888 66.5866574,22.544 68.4640001,22.544 C68.6880012,22.544 68.9066657,22.5599998 69.1200001,22.592 C69.3333345,22.6240002 69.5253326,22.6719997 69.6960001,22.736 L69.5840001,23.6 C69.4453327,23.5466664 69.2853343,23.5066668 69.1040001,23.48 C68.9226659,23.4533332 68.7413343,23.44 68.5600001,23.44 C67.8986635,23.44 67.4266682,23.6346647 67.1440001,24.024 C66.861332,24.4133353 66.7200001,25.0293291 66.7200001,25.872 L66.7200001,26.368 L69.0400001,26.368 L69.0400001,27.248 L66.7200001,27.248 L66.7200001,34 L65.6480001,34 Z M72.8480001,26.368 L74.2400001,26.368 L74.2400001,24.336 L75.3120001,24.336 L75.3120001,26.368 L77.9040001,26.368 L77.9040001,27.248 L75.3120001,27.248 L75.3120001,31.488 C75.3120001,31.7760014 75.328,32.0319989 75.3600001,32.256 C75.3920003,32.4800011 75.4559997,32.6693326 75.5520001,32.824 C75.6480006,32.9786674 75.778666,33.093333 75.9440001,33.168 C76.1093343,33.242667 76.3253321,33.28 76.5920001,33.28 C76.8160013,33.28 77.0373324,33.2586669 77.2560001,33.216 C77.4746679,33.1733331 77.6746659,33.1200003 77.8560001,33.056 L77.9520001,33.872 C77.7919993,33.946667 77.5626683,34.013333 77.2640001,34.072 C76.965332,34.130667 76.6773349,34.16 76.4000001,34.16 C75.9946648,34.16 75.6560015,34.093334 75.3840001,33.96 C75.1119988,33.826666 74.8906677,33.6400012 74.7200001,33.4 C74.5493326,33.1599988 74.4266672,32.8746683 74.3520001,32.544 C74.2773331,32.2133317 74.2400001,31.8560019 74.2400001,31.472 L74.2400001,27.248 L72.8480001,27.248 L72.8480001,26.368 Z M90.3200002,32.656 L92.0640002,26.368 L93.1360002,26.368 L90.8320002,34 L89.8240002,34 L87.6320002,27.344 L85.4400002,34 L84.4320002,34 L82.1280002,26.368 L83.2000002,26.368 L84.9440002,32.656 L87.0240002,26.368 L88.2400002,26.368 L90.3200002,32.656 Z M102.32,32.96 C102.202666,33.0880006 102.056001,33.2239993 101.88,33.368 C101.703999,33.5120007 101.504001,33.6426661 101.28,33.76 C101.055999,33.8773339 100.808002,33.973333 100.536,34.048 C100.263999,34.122667 99.9786684,34.16 99.6800002,34.16 C98.9866634,34.16 98.4586687,33.9680019 98.0960002,33.584 C97.7333318,33.1999981 97.5520002,32.704003 97.5520002,32.096 C97.5520002,31.7333315 97.6186662,31.418668 97.7520002,31.152 C97.8853342,30.885332 98.0693324,30.6640009 98.3040002,30.488 C98.5386681,30.3119991 98.8186653,30.1760005 99.1440002,30.08 C99.4693352,29.9839995 99.8239983,29.9253334 100.208,29.904 C100.549335,29.8826666 100.895998,29.8666667 101.248,29.856 C101.600002,29.8453333 101.951998,29.8346667 102.304,29.824 L102.304,29.328 C102.304,28.5599962 102.146668,27.9973351 101.832,27.64 C101.517332,27.2826649 101.029337,27.104 100.368,27.104 C99.9839983,27.104 99.6293352,27.1466662 99.3040002,27.232 C98.9786653,27.3173338 98.6613351,27.455999 98.3520002,27.648 L98.0800002,26.832 C98.3786684,26.6506658 98.7306649,26.5013339 99.1360002,26.384 C99.5413356,26.2666661 99.9999977,26.208 100.512,26.208 C100.928002,26.208 101.311998,26.2693327 101.664,26.392 C102.016002,26.5146673 102.317332,26.7039987 102.568,26.96 C102.818668,27.2160013 103.016,27.5359981 103.16,27.92 C103.304001,28.3040019 103.376,28.7573307 103.376,29.28 L103.376,34 L102.32,34 L102.32,32.96 Z M99.9200002,33.328 C100.378669,33.328 100.815998,33.2106678 101.232,32.976 C101.648002,32.7413322 102.005332,32.453335 102.304,32.112 L102.304,30.592 C101.951998,30.6026667 101.608002,30.6186666 101.272,30.64 C100.935999,30.6613334 100.624002,30.6826666 100.336,30.704 C99.8346644,30.7573336 99.4213352,30.887999 99.0960002,31.096 C98.7706653,31.304001 98.6080002,31.637331 98.6080002,32.096 C98.6080002,32.9173374 99.0453292,33.328 99.9200002,33.328 L99.9200002,33.328 Z M113.088,27.248 L112.784,27.248 C112.186664,27.248 111.658669,27.3706654 111.2,27.616 C110.741331,27.8613346 110.373335,28.2399974 110.096,28.752 L110.096,34 L109.024,34 L109.024,26.368 L110.032,26.368 L110.032,27.888 C110.234668,27.4079976 110.554665,27.0213348 110.992,26.728 C111.429336,26.4346652 111.951997,26.288 112.56,26.288 C112.773335,26.288 112.949333,26.3146664 113.088,26.368 L113.088,27.248 Z M120.592,26.208 C121.093336,26.208 121.522665,26.2906658 121.88,26.456 C122.237335,26.6213342 122.533332,26.8479986 122.768,27.136 C123.002668,27.4240014 123.173333,27.7599981 123.28,28.144 C123.386668,28.5280019 123.44,28.9386645 123.44,29.376 C123.44,29.717335 123.408001,30.0693315 123.344,30.432 L118.32,30.432 C118.330667,31.3706714 118.554665,32.0853309 118.992,32.576 C119.429336,33.0666691 120.085329,33.312 120.96,33.312 C121.365336,33.312 121.759998,33.2666671 122.144,33.176 C122.528002,33.0853329 122.874665,32.9653341 123.184,32.816 L123.36,33.616 C123.029332,33.7760008 122.642669,33.9066662 122.2,34.008 C121.757331,34.1093338 121.306669,34.16 120.848,34.16 C120.239997,34.16 119.709336,34.0586677 119.256,33.856 C118.802665,33.6533323 118.426668,33.3733351 118.128,33.016 C117.829332,32.6586649 117.605334,32.2373358 117.456,31.752 C117.306666,31.2666642 117.232,30.7466694 117.232,30.192 C117.232,29.6159971 117.309333,29.0853358 117.464,28.6 C117.618668,28.1146642 117.839999,27.6933351 118.128,27.336 C118.416002,26.9786649 118.767998,26.7013343 119.184,26.504 C119.600002,26.3066657 120.069331,26.208 120.592,26.208 L120.592,26.208 Z M120.544,27.024 C120.191999,27.024 119.880002,27.0986659 119.608,27.248 C119.335999,27.3973341 119.106668,27.5919988 118.92,27.832 C118.733333,28.0720012 118.589334,28.3439985 118.488,28.648 C118.386666,28.9520015 118.330667,29.2639984 118.32,29.584 L122.416,29.584 C122.480001,28.8479963 122.357335,28.2373358 122.048,27.752 C121.738665,27.2666642 121.237337,27.024 120.544,27.024 L120.544,27.024 Z" id="software-copy"></path>
        </g>
    </g>
</svg>