<?xml version="1.0" encoding="UTF-8" standalone="no"?>
<svg width="91px" height="52px" viewBox="0 0 91 52" version="1.1" xmlns="http://www.w3.org/2000/svg" xmlns:xlink="http://www.w3.org/1999/xlink" class="logo">
    <g id="Page-1" stroke="none" stroke-width="1" fill="none" fill-rule="evenodd">
        <g id="Group-17" fill="#FFFFFF">
            <g id="Group-16-Copy-11">
                <path d="M11,22 C17.0751325,22 22,17.0751325 22,11 C22,4.92486745 17.0751325,0 11,0 C4.92486745,0 0,4.92486745 0,11 C0,17.0751325 4.92486745,22 11,22 Z" id="full-copy-106" opacity="0.200000018"></path>
                <path d="M34,22 C40.0751325,22 45,17.0751325 45,11 C45,4.92486745 40.0751325,0 34,0 C27.9248675,0 23,4.92486745 23,11 C23,17.0751325 27.9248675,22 34,22 Z" id="full-copy-105" opacity="0.200000018"></path>
                <path d="M57,22 C63.0751325,22 68,17.0751325 68,11 C68,4.92486745 63.0751325,0 57,0 C50.9248675,0 46,4.92486745 46,11 C46,17.0751325 50.9248675,22 57,22 Z" id="full-copy-104" opacity="0.200000018"></path>
                <path d="M80,22 C86.0751325,22 91,17.0751325 91,11 C91,4.92486745 86.0751325,0 80,0 C73.9248675,0 69,4.92486745 69,11 C69,17.0751325 73.9248675,22 80,22 Z" id="full-copy-103" opacity="0.200000018"></path>
                <path d="M80,20 C84.970563,20 89,15.970563 89,11 C89,6.02943701 84.970563,2 80,2 C75.029437,2 71,6.02943701 71,11 C71,15.970563 75.029437,20 80,20 Z" id="full-copy-102"></path>
                <g id="Group-14-Copy-17" transform="translate(25.000000, 2.000000)">
                    <path d="M7.81678878,2.37657116e-14 C3.40540565,0.579311653 0,4.35342705 0,8.92291801 C0,13.893481 4.02943701,17.922918 9,17.922918 C10.3219505,17.922918 11.5773328,17.6379057 12.7080504,17.1259776 C8.5577451,15.4700607 5.625,11.4139792 5.625,6.67291801 C5.625,4.17479968 6.43923395,1.86685599 7.81678878,1.88293825e-13 Z" id="Combined-Shape-Copy-12"></path>
                </g>
                <g id="Group-15-Copy-17" transform="translate(57.000000, 11.000000) scale(1, -1) translate(-57.000000, -11.000000) translate(48.000000, 2.000000)">
                    <path d="M6.82704586,17.735926 C2.90625154,16.7638817 0,13.2213367 0,9 C0,4.02943701 4.02943701,0 9,0 C9.96614829,0 10.8967397,0.152237199 11.7690945,0.434031984 C12.8685729,2.28295959 13.5,4.4427409 13.5,6.75 C13.5,11.5281355 10.7920076,15.6737852 6.82704586,17.735926 Z" id="Combined-Shape-Copy-10"></path>
                </g>
            </g>
            <path d="M4.68157853,49.5198914 C4.68157853,49.8300596 4.61615339,50.1111454 4.48530117,50.3631571 C4.35444894,50.6151688 4.17271246,50.8284062 3.94008628,51.0028759 C3.70746009,51.1773455 3.43122064,51.3130421 3.11135964,51.4099696 C2.79149864,51.5068972 2.4425646,51.5553603 2.06454705,51.5553603 C1.89977017,51.5553603 1.72288,51.5456677 1.53387123,51.5262822 C1.34486245,51.5068966 1.15827967,51.480242 0.974117271,51.4463173 C0.789954876,51.4123927 0.613064703,51.3687759 0.443441444,51.3154657 C0.273818186,51.2621556 0.126005849,51.206423 0,51.1482665 L0.174468765,50.3631571 C0.436173221,50.4794701 0.722105282,50.5763963 1.03227353,50.6539383 C1.34244177,50.7314804 1.6816832,50.7702508 2.05000799,50.7702508 C2.51526035,50.7702508 2.9102343,50.6733247 3.23494168,50.4794696 C3.55964906,50.2856144 3.72200032,49.994836 3.72200032,49.6071257 C3.72200032,49.4132706 3.67838356,49.2484962 3.59114875,49.1127976 C3.50391393,48.977099 3.39002573,48.8559413 3.24948075,48.749321 C3.10893576,48.6427006 2.94658451,48.5481977 2.76242211,48.4658092 C2.57825972,48.3834208 2.38925378,48.2986104 2.19539863,48.2113756 C1.96277244,48.114448 1.72288029,48.0054062 1.47571497,47.8842467 C1.22854965,47.7630872 1.00319642,47.6225443 0.799648506,47.4626138 C0.596100596,47.3026833 0.428903035,47.1161005 0.298050807,46.9028599 C0.167198579,46.6896192 0.101773446,46.4376113 0.101773446,46.1468286 C0.101773446,45.8366603 0.162352273,45.5676903 0.283511743,45.3399105 C0.404671213,45.1121307 0.571868775,44.9231248 0.785109442,44.772887 C0.99835011,44.6226493 1.24551172,44.5111843 1.52660169,44.4384886 C1.80769166,44.3657929 2.10816264,44.3294456 2.42802365,44.3294456 C2.80604119,44.3294456 3.16466785,44.3730624 3.50391436,44.4602972 C3.84316088,44.547532 4.14363186,44.658997 4.40533632,44.7946956 L4.21632849,45.5798051 C3.93523852,45.4344137 3.64446015,45.3205255 3.34398466,45.2381371 C3.04350918,45.1557486 2.73819189,45.114555 2.42802365,45.114555 C2.02092783,45.114555 1.69137901,45.1872496 1.43936731,45.332641 C1.18735561,45.4780324 1.06135165,45.7203477 1.06135165,46.0595942 C1.06135165,46.2437566 1.10496841,46.3964152 1.19220323,46.5175747 C1.27943805,46.6387342 1.39090309,46.7477761 1.52660169,46.8447036 C1.6623003,46.9416312 1.81495894,47.0264416 1.9845822,47.0991372 C2.15420546,47.1718329 2.32624933,47.251797 2.50071896,47.3390318 C2.69457412,47.4359594 2.9175042,47.540155 3.1695159,47.6516217 C3.4215276,47.7630884 3.6589966,47.9036313 3.88193002,48.0732545 C4.10486345,48.2428778 4.29386938,48.4439995 4.44895351,48.6766257 C4.60403763,48.9092518 4.68157853,49.1903376 4.68157853,49.5198914 Z M17.9702828,47.9496725 C17.9702828,48.4246176 17.9000114,48.8801704 17.7594664,49.3163445 C17.6189214,49.7525186 17.4105302,50.1353767 17.1342866,50.4649305 C16.858043,50.7944843 16.5163785,51.0586079 16.1092826,51.2573095 C15.7021868,51.456011 15.2369414,51.5553603 14.7135325,51.5553603 C14.1901236,51.5553603 13.7248782,51.456011 13.3177824,51.2573095 C12.9106866,51.0586079 12.569022,50.7944843 12.2927784,50.4649305 C12.0165348,50.1353767 11.8081436,49.7525186 11.6675987,49.3163445 C11.5270537,48.8801704 11.4567822,48.4246176 11.4567822,47.9496725 C11.4567822,47.4747273 11.5270537,47.0167514 11.6675987,46.5757309 C11.8081436,46.1347105 12.0165348,45.7494291 12.2927784,45.4198754 C12.569022,45.0903216 12.9106866,44.8261979 13.3177824,44.6274964 C13.7248782,44.4287949 14.1901236,44.3294456 14.7135325,44.3294456 C15.2369414,44.3294456 15.7021868,44.4287949 16.1092826,44.6274964 C16.5163785,44.8261979 16.858043,45.0903216 17.1342866,45.4198754 C17.4105302,45.7494291 17.6189214,46.1347105 17.7594664,46.5757309 C17.9000114,47.0167514 17.9702828,47.4747273 17.9702828,47.9496725 Z M16.9961655,47.9496725 C16.9961655,47.5619622 16.9477025,47.1936429 16.8507749,46.8447036 C16.7538473,46.4957644 16.6108813,46.1952934 16.4218725,45.9432817 C16.2328637,45.69127 15.9953947,45.4901483 15.7094584,45.3399105 C15.423522,45.1896728 15.0915501,45.114555 14.7135325,45.114555 C14.335515,45.114555 14.003543,45.1896728 13.7176066,45.3399105 C13.4316703,45.4901483 13.1942013,45.69127 13.0051925,45.9432817 C12.8161837,46.1952934 12.6732177,46.4957644 12.5762901,46.8447036 C12.4793626,47.1936429 12.4308995,47.5619622 12.4308995,47.9496725 C12.4308995,48.3470755 12.4793626,48.7153948 12.5762901,49.0546413 C12.6732177,49.3938878 12.8161837,49.6919357 13.0051925,49.9487937 C13.1942013,50.2056518 13.4316703,50.4067735 13.7176066,50.5521649 C14.003543,50.6975562 14.335515,50.7702508 14.7135325,50.7702508 C15.0915501,50.7702508 15.423522,50.6975562 15.7094584,50.5521649 C15.9953947,50.4067735 16.2328637,50.2056518 16.4218725,49.9487937 C16.6108813,49.6919357 16.7538473,49.3938878 16.8507749,49.0546413 C16.9477025,48.7153948 16.9961655,48.3470755 16.9961655,47.9496725 Z M25.763221,51.4099696 L25.763221,45.2744847 L24.4983224,45.2744847 L24.4983224,44.4748362 L25.763221,44.4748362 L25.763221,44.0532034 C25.763221,42.0177243 26.6161708,41 28.3220962,41 C28.5256441,41 28.7243426,41.0145389 28.9181978,41.0436172 C29.1120529,41.0726955 29.28652,41.1163122 29.4416041,41.1744688 L29.3398306,41.9595782 C29.2138248,41.9111144 29.0684356,41.8747671 28.9036587,41.8505352 C28.7388819,41.8263033 28.5741074,41.8141876 28.4093306,41.8141876 C27.8083796,41.8141876 27.3794815,41.9910777 27.1226234,42.3448634 C26.8657653,42.6986491 26.7373382,43.2583974 26.7373382,44.0241253 L26.7373382,44.4748362 L28.8455025,44.4748362 L28.8455025,45.2744847 L26.7373382,45.2744847 L26.7373382,51.4099696 L25.763221,51.4099696 Z M34.8501358,44.4748362 L36.1150344,44.4748362 L36.1150344,42.6283751 L37.0891516,42.6283751 L37.0891516,44.4748362 L39.4444799,44.4748362 L39.4444799,45.2744847 L37.0891516,45.2744847 L37.0891516,49.1273366 C37.0891516,49.3890411 37.1036905,49.6216638 37.1327688,49.8252117 C37.1618471,50.0287596 37.2200028,50.2008035 37.3072376,50.3413485 C37.3944724,50.4818934 37.5132069,50.586089 37.6634446,50.6539383 C37.8136824,50.7217876 38.0099578,50.7557118 38.2522767,50.7557118 C38.4558246,50.7557118 38.6569463,50.7363266 38.8556479,50.6975555 C39.0543494,50.6587845 39.2360859,50.6103214 39.4008628,50.5521649 L39.4880971,51.2936571 C39.3427058,51.3615064 39.1343146,51.4220853 38.8629174,51.4753954 C38.5915202,51.5287056 38.3298197,51.5553603 38.077808,51.5553603 C37.7094832,51.5553603 37.4017427,51.4947815 37.1545774,51.373622 C36.9074121,51.2524625 36.7062904,51.0828418 36.5512063,50.8647548 C36.3961221,50.6466677 36.2846571,50.3873903 36.2168078,50.0869148 C36.1489585,49.7864394 36.1150344,49.4617368 36.1150344,49.1127976 L36.1150344,45.2744847 L34.8501358,45.2744847 L34.8501358,44.4748362 Z M53.2711296,50.1886883 L54.8558875,44.4748362 L55.8300048,44.4748362 L53.7363796,51.4099696 L52.8204186,51.4099696 L50.8285669,45.3617191 L48.8367151,51.4099696 L47.9207541,51.4099696 L45.8271289,44.4748362 L46.8012462,44.4748362 L48.3860042,50.1886883 L50.2760824,44.4748362 L51.3810513,44.4748362 L53.2711296,50.1886883 Z M66.7197635,50.4649305 C66.6131432,50.5812436 66.4798698,50.7048244 66.3199393,50.8356766 C66.1600088,50.9665289 65.9782723,51.0852634 65.7747244,51.1918837 C65.5711765,51.298504 65.3458233,51.3857375 65.0986579,51.4535868 C64.8514926,51.5214361 64.5922152,51.5553603 64.320818,51.5553603 C63.6907888,51.5553603 63.2110045,51.3808933 62.8814507,51.031954 C62.551897,50.6830147 62.3871225,50.2323082 62.3871225,49.6798211 C62.3871225,49.3502673 62.4477014,49.0643352 62.5688608,48.8220163 C62.6900203,48.5796974 62.8572179,48.3785757 63.0704585,48.2186452 C63.2836992,48.0587147 63.5381303,47.9351338 63.8337594,47.847899 C64.1293885,47.7606642 64.4516679,47.7073548 64.8006071,47.6879693 C65.1107754,47.6685838 65.4257853,47.6540449 65.7456463,47.6443521 L66.7052245,47.615274 L66.7052245,47.164563 C66.7052245,46.4666845 66.5622584,45.9553992 66.2763221,45.6306918 C65.9903857,45.3059844 65.5469487,45.1436332 64.9459978,45.1436332 C64.5970585,45.1436332 64.2747791,45.1824036 63.97915,45.2599457 C63.6835209,45.3374877 63.3951657,45.4634917 63.1140757,45.6379613 L62.8669116,44.8964691 C63.1383089,44.7316922 63.4581651,44.5959956 63.8264899,44.4893753 C64.1948146,44.382755 64.611597,44.3294456 65.0768493,44.3294456 C65.4548669,44.3294456 65.8038009,44.3851781 66.1236619,44.4966448 C66.4435229,44.6081115 66.7173392,44.7801554 66.945119,45.0127816 C67.1728988,45.2454078 67.3522122,45.5361861 67.4830644,45.8851254 C67.6139166,46.2340647 67.6793417,46.6460007 67.6793417,47.1209458 L67.6793417,51.4099696 L66.7197635,51.4099696 L66.7197635,50.4649305 Z M64.538904,50.799329 C64.9556926,50.799329 65.3530897,50.6927102 65.7311072,50.4794696 C66.1091248,50.2662289 66.4338273,50.0045284 66.7052245,49.6943601 L66.7052245,48.3131491 C66.3853635,48.3228418 66.0727767,48.3373807 65.7674549,48.3567663 C65.462133,48.3761518 65.1786241,48.395537 64.9169196,48.4149225 C64.46136,48.4633863 64.0857713,48.5821208 63.7901422,48.7711296 C63.4945131,48.9601383 63.3467008,49.2630325 63.3467008,49.6798211 C63.3467008,50.4261634 63.7440979,50.799329 64.538904,50.799329 Z M79.0488896,45.2744847 L78.7726474,45.2744847 C78.229853,45.2744847 77.7500687,45.3859498 77.3332801,45.6088832 C76.9164915,45.8318166 76.5820964,46.1759044 76.3300847,46.6411567 L76.3300847,51.4099696 L75.3559674,51.4099696 L75.3559674,44.4748362 L76.2719284,44.4748362 L76.2719284,45.8560473 C76.4560908,45.4198732 76.7468692,45.068516 77.1442722,44.8019652 C77.5416753,44.5354143 78.0166133,44.4021409 78.5691005,44.4021409 C78.7629556,44.4021409 78.9228837,44.4263724 79.0488896,44.4748362 L79.0488896,45.2744847 Z M88.4120467,44.3294456 C88.8676063,44.3294456 89.2577339,44.4045633 89.5824413,44.5548011 C89.9071487,44.7050388 90.1761187,44.9110068 90.3893593,45.1727113 C90.6026,45.4344158 90.7576818,45.739733 90.8546094,46.0886723 C90.9515369,46.4376116 91,46.8107772 91,47.2081802 C91,47.5183485 90.9709222,47.8382047 90.9127656,48.1677584 L86.3474996,48.1677584 C86.3571924,49.0207211 86.5607372,49.6701261 86.9581403,50.115993 C87.3555433,50.5618598 87.951639,50.7847899 88.7464451,50.7847899 C89.1147699,50.7847899 89.4733966,50.7435963 89.8223358,50.6612079 C90.1712751,50.5788194 90.486285,50.4697775 90.767375,50.3340789 L90.9273047,51.0610321 C90.6268292,51.2064235 90.275472,51.325158 89.8732226,51.4172392 C89.4709731,51.5093204 89.0614603,51.5553603 88.6446717,51.5553603 C88.0921845,51.5553603 87.609977,51.4632805 87.1980348,51.2791181 C86.7860926,51.0949557 86.444428,50.8405246 86.1730308,50.5158172 C85.9016336,50.1911098 85.6980888,49.8082517 85.5623902,49.3672312 C85.4266916,48.9262107 85.3588433,48.4536959 85.3588433,47.9496725 C85.3588433,47.4262636 85.4291147,46.9440561 85.5696597,46.5030356 C85.7102047,46.0620152 85.9113264,45.679157 86.1730308,45.3544496 C86.4347353,45.0297422 86.7545915,44.7777343 87.132609,44.5984183 C87.5106266,44.4191023 87.9371015,44.3294456 88.4120467,44.3294456 Z M88.3684295,45.0709378 C88.0485685,45.0709378 87.7650596,45.1387861 87.5178942,45.2744847 C87.2707289,45.4101833 87.0623377,45.5870735 86.8927145,45.8051606 C86.7230912,46.0232476 86.592241,46.2704092 86.5001598,46.5466528 C86.4080786,46.8228964 86.3571924,47.1064053 86.3474996,47.397188 L90.0694999,47.397188 C90.1276565,46.7283878 90.0161914,46.1734857 89.7351015,45.7324653 C89.4540115,45.2914448 88.9984587,45.0709378 88.3684295,45.0709378 Z" id="software-copy-26" opacity="0.5"></path>
            <path d="M10.6451331,30.5936272 C10.3008858,30.5936272 9.99636386,30.6730677 9.73155823,30.8319511 C9.4667526,30.9908345 9.2416712,31.1761956 9.05630726,31.3880401 C9.10926838,31.6131249 9.14567861,31.8713065 9.16553903,32.1625927 C9.18539945,32.4538789 9.19532952,32.7319207 9.19532952,32.9967263 L9.19532952,38.021388 L6.01767785,38.021388 L6.01767785,32.9371453 C6.01767785,32.1294881 5.9150672,31.5369944 5.70984284,31.1596464 C5.50461848,30.7822984 5.14382622,30.5936272 4.62745524,30.5936272 C4.29644821,30.5936272 4.0084764,30.6664477 3.76353119,30.8120908 C3.51858599,30.9577339 3.32329476,31.136475 3.17765167,31.3483195 L3.17765167,38.021388 L0,38.021388 L0,28.2898298 L3.05848973,28.2898298 L3.05848973,29.5608904 C3.36301621,29.0312792 3.76352871,28.6539368 4.26003927,28.428852 C4.75654982,28.2037672 5.26298299,28.0912265 5.77935397,28.0912265 C6.41488748,28.0912265 6.94118078,28.2203173 7.35824964,28.4785028 C7.77531851,28.7366883 8.16921098,29.1570609 8.53993886,29.7396333 C9.2284335,28.64069 10.3075003,28.0912265 11.7771715,28.0912265 C12.412705,28.0912265 12.9489284,28.2269374 13.3858577,28.4983631 C13.8227869,28.7697889 14.1769592,29.1305812 14.4483849,29.5807507 C14.7198107,30.0309203 14.9151019,30.5505936 15.0342645,31.1397861 C15.153427,31.7289786 15.2130074,32.3479525 15.2130074,32.9967263 L15.2130074,38.021388 L12.0353557,38.021388 L12.0353557,32.9371453 C12.0353557,32.1294881 11.9327451,31.5369944 11.7275207,31.1596464 C11.5222963,30.7822984 11.1615041,30.5936272 10.6451331,30.5936272 Z M26.6525534,33.1556089 C26.6525534,33.8705841 26.5400127,34.5358982 26.3149279,35.1515713 C26.0898431,35.7672444 25.7588411,36.3034678 25.3219118,36.7602575 C24.8849825,37.2170472 24.3421391,37.5745294 23.6933653,37.8327149 C23.0445915,38.0909004 22.3031469,38.2199912 21.4690091,38.2199912 C20.6348714,38.2199912 19.8934268,38.0909004 19.244653,37.8327149 C18.5958792,37.5745294 18.0530358,37.2170472 17.6161065,36.7602575 C17.1791772,36.3034678 16.8481751,35.7672444 16.6230903,35.1515713 C16.3980055,34.5358982 16.2854648,33.8705841 16.2854648,33.1556089 C16.2854648,32.4406337 16.3980055,31.7753195 16.6230903,31.1596464 C16.8481751,30.5439733 17.1791772,30.00775 17.6161065,29.5509603 C18.0530358,29.0941705 18.5958792,28.7366883 19.244653,28.4785028 C19.8934268,28.2203173 20.6348714,28.0912265 21.4690091,28.0912265 C22.3031469,28.0912265 23.0445915,28.2203173 23.6933653,28.4785028 C24.3421391,28.7366883 24.8849825,29.0941705 25.3219118,29.5509603 C25.7588411,30.00775 26.0898431,30.5439733 26.3149279,31.1596464 C26.5400127,31.7753195 26.6525534,32.4406337 26.6525534,33.1556089 Z M23.4749017,33.1556089 C23.4749017,32.8113616 23.4418015,32.4770495 23.3756001,32.1526626 C23.3093987,31.8282757 23.200168,31.5369938 23.0479048,31.2788084 C22.8956416,31.0206229 22.6904203,30.8154016 22.4322348,30.6631383 C22.1740493,30.5108751 21.8529773,30.4347446 21.4690091,30.4347446 C21.085041,30.4347446 20.763969,30.5108751 20.5057835,30.6631383 C20.247598,30.8154016 20.0423767,31.0206229 19.8901135,31.2788084 C19.7378502,31.5369938 19.6286195,31.8282757 19.5624181,32.1526626 C19.4962167,32.4770495 19.4631165,32.8113616 19.4631165,33.1556089 C19.4631165,33.4998562 19.4962167,33.8341683 19.5624181,34.1585552 C19.6286195,34.4829421 19.7378502,34.7742239 19.8901135,35.0324094 C20.0423767,35.2905949 20.247598,35.4958162 20.5057835,35.6480794 C20.763969,35.8003426 21.085041,35.8764731 21.4690091,35.8764731 C21.8529773,35.8764731 22.1740493,35.8003426 22.4322348,35.6480794 C22.6904203,35.4958162 22.8956416,35.2905949 23.0479048,35.0324094 C23.200168,34.7742239 23.3093987,34.4829421 23.3756001,34.1585552 C23.4418015,33.8341683 23.4749017,33.4998562 23.4749017,33.1556089 Z M37.5558707,33.1556089 C37.5558707,33.8705841 37.44333,34.5358982 37.2182453,35.1515713 C36.9931605,35.7672444 36.6621584,36.3034678 36.2252291,36.7602575 C35.7882998,37.2170472 35.2454564,37.5745294 34.5966826,37.8327149 C33.9479088,38.0909004 33.2064642,38.2199912 32.3723265,38.2199912 C31.5381887,38.2199912 30.7967441,38.0909004 30.1479703,37.8327149 C29.4991965,37.5745294 28.9563531,37.2170472 28.5194238,36.7602575 C28.0824945,36.3034678 27.7514924,35.7672444 27.5264077,35.1515713 C27.3013229,34.5358982 27.1887822,33.8705841 27.1887822,33.1556089 C27.1887822,32.4406337 27.3013229,31.7753195 27.5264077,31.1596464 C27.7514924,30.5439733 28.0824945,30.00775 28.5194238,29.5509603 C28.9563531,29.0941705 29.4991965,28.7366883 30.1479703,28.4785028 C30.7967441,28.2203173 31.5381887,28.0912265 32.3723265,28.0912265 C33.2064642,28.0912265 33.9479088,28.2203173 34.5966826,28.4785028 C35.2454564,28.7366883 35.7882998,29.0941705 36.2252291,29.5509603 C36.6621584,30.00775 36.9931605,30.5439733 37.2182453,31.1596464 C37.44333,31.7753195 37.5558707,32.4406337 37.5558707,33.1556089 Z M34.3782191,33.1556089 C34.3782191,32.8113616 34.3451189,32.4770495 34.2789175,32.1526626 C34.2127161,31.8282757 34.1034854,31.5369938 33.9512221,31.2788084 C33.7989589,31.0206229 33.5937376,30.8154016 33.3355521,30.6631383 C33.0773666,30.5108751 32.7562946,30.4347446 32.3723265,30.4347446 C31.9883583,30.4347446 31.6672863,30.5108751 31.4091008,30.6631383 C31.1509153,30.8154016 30.945694,31.0206229 30.7934308,31.2788084 C30.6411675,31.5369938 30.5319369,31.8282757 30.4657355,32.1526626 C30.3995341,32.4770495 30.3664338,32.8113616 30.3664338,33.1556089 C30.3664338,33.4998562 30.3995341,33.8341683 30.4657355,34.1585552 C30.5319369,34.4829421 30.6411675,34.7742239 30.7934308,35.0324094 C30.945694,35.2905949 31.1509153,35.4958162 31.4091008,35.6480794 C31.6672863,35.8003426 31.9883583,35.8764731 32.3723265,35.8764731 C32.7562946,35.8764731 33.0773666,35.8003426 33.3355521,35.6480794 C33.5937376,35.4958162 33.7989589,35.2905949 33.9512221,35.0324094 C34.1034854,34.7742239 34.2127161,34.4829421 34.2789175,34.1585552 C34.3451189,33.8341683 34.3782191,33.4998562 34.3782191,33.1556089 Z M38.7673505,38.021388 L38.7673505,28.2898298 L41.8258402,28.2898298 L41.8258402,29.5608904 C42.1303667,29.0312792 42.5242592,28.6539368 43.0075294,28.428852 C43.4907997,28.2037672 44.0038529,28.0912265 44.5467045,28.0912265 C45.1954782,28.0912265 45.7449417,28.2269374 46.1951113,28.4983631 C46.6452808,28.7697889 47.0126931,29.1305812 47.2973592,29.5807507 C47.5820252,30.0309203 47.7872465,30.5505936 47.9130292,31.1397861 C48.0388119,31.7289786 48.1017023,32.3479525 48.1017023,32.9967263 L48.1017023,38.021388 L44.9240506,38.021388 L44.9240506,32.9371453 C44.9240506,32.1294881 44.7982698,31.5369944 44.5467045,31.1596464 C44.2951391,30.7822984 43.9111767,30.5936272 43.3948057,30.5936272 C43.0637987,30.5936272 42.7758269,30.6664477 42.5308817,30.8120908 C42.2859365,30.9577339 42.0906452,31.136475 41.9450022,31.3483195 L41.9450022,38.021388 L38.7673505,38.021388 Z M56.7806634,34.8437363 C56.7806634,35.3865879 56.6780528,35.8698509 56.4728284,36.2935399 C56.2676041,36.7172289 55.9763222,37.0714011 55.5989742,37.3560672 C55.2216262,37.6407332 54.7747734,37.8558846 54.2584024,38.0015277 C53.7420314,38.1471708 53.1727079,38.2199912 52.5504146,38.2199912 C52.0208034,38.2199912 51.4647199,38.1703409 50.8821475,38.0710388 C50.2995751,37.9717367 49.7699718,37.8227858 49.2933217,37.6241815 L49.7302488,35.4196857 C50.1406975,35.5918093 50.5941703,35.7209002 51.0906809,35.806962 C51.5871915,35.8930238 52.0208042,35.9360541 52.3915321,35.9360541 C52.7755002,35.9360541 53.1098123,35.8797837 53.3944784,35.7672413 C53.6791444,35.6546989 53.8214753,35.4660278 53.8214753,35.2012221 C53.8214753,34.9628971 53.6956945,34.794086 53.4441292,34.6947839 C53.1925638,34.5954818 52.8152215,34.4531509 52.3120908,34.267787 C51.901642,34.1221439 51.5176796,33.9599528 51.160192,33.781209 C50.8027044,33.6024652 50.4948725,33.3906239 50.236687,33.1456787 C49.9785015,32.9007335 49.7765903,32.6193817 49.6309472,32.301615 C49.4853041,31.9838482 49.4124836,31.6131259 49.4124836,31.1894369 C49.4124836,30.1302144 49.7699659,29.3490495 50.4849411,28.8459188 C51.1999163,28.3427881 52.1333421,28.0912265 53.2852466,28.0912265 C53.8942995,28.0912265 54.450383,28.1474969 54.9535137,28.2600393 C55.4566444,28.3725817 55.9399074,28.5612528 56.4033173,28.8260585 L55.9663902,30.9113924 C55.6089026,30.752509 55.2315602,30.6234182 54.8343518,30.5241161 C54.4371433,30.424814 54.0200807,30.3751637 53.5831514,30.3751637 C53.1991833,30.3751637 52.9045914,30.4115739 52.6993671,30.4843954 C52.4941427,30.557217 52.3915321,30.7061679 52.3915321,30.9312527 C52.3915321,31.1563375 52.5140028,31.3185285 52.758948,31.4178306 C53.0038932,31.5171327 53.3183452,31.6396035 53.7023134,31.7852466 C53.9935996,31.8911688 54.3179816,32.0202596 54.6754692,32.1725229 C55.0329568,32.3247861 55.3672689,32.5200773 55.6784155,32.7584024 C55.9895621,32.9967275 56.2510538,33.2846993 56.4628983,33.6223265 C56.6747428,33.9599536 56.7806634,34.3670862 56.7806634,34.8437363 Z M63.2749891,37.0680925 C62.9704626,37.372619 62.55671,37.6407306 62.0337189,37.8724356 C61.5107278,38.1041405 60.9380942,38.2199912 60.3158009,38.2199912 C59.8788717,38.2199912 59.4882892,38.1471708 59.1440419,38.0015277 C58.7997946,37.8558846 58.5118228,37.6572833 58.2801178,37.405718 C58.0484129,37.1541526 57.8696718,36.8595608 57.7438891,36.5219336 C57.6181065,36.1843064 57.5552161,35.8235142 57.5552161,35.439546 C57.5552161,34.5392069 57.8365678,33.8606526 58.3992798,33.4038629 C58.9619917,32.9470732 59.7597067,32.6789615 60.7924487,32.5995198 C61.1764169,32.5730393 61.5835494,32.5531791 62.0138586,32.5399389 C62.4441677,32.5266986 62.8248201,32.5134585 63.1558271,32.5002182 L63.1558271,32.182453 C63.1558271,31.1232305 62.5666434,30.5936272 61.3882584,30.5936272 C60.9248485,30.5936272 60.4779957,30.6465875 60.0476866,30.7525098 C59.6173774,30.858432 59.223485,31.004073 58.8659974,31.1894369 L58.290048,28.9849411 C58.7534579,28.7201354 59.2996113,28.5049841 59.9285247,28.3394806 C60.557438,28.173977 61.2426123,28.0912265 61.9840681,28.0912265 C63.3478171,28.0912265 64.4136437,28.4453987 65.1815801,29.1537538 C65.9495164,29.8621089 66.3334788,30.9246255 66.3334788,32.3413356 L66.3334788,38.021388 L63.2749891,38.021388 L63.2749891,37.0680925 Z M61.547141,36.1346573 C61.8516674,36.1346573 62.1396392,36.0949371 62.411065,36.0154954 C62.6824908,35.9360537 62.9307423,35.830133 63.1558271,35.6977302 L63.1558271,34.2479266 C62.8380604,34.2744072 62.5533986,34.3041974 62.3018332,34.3372981 C62.0502679,34.3703988 61.8053264,34.400189 61.5670013,34.4266695 C60.9182275,34.5061112 60.5938455,34.8106331 60.5938455,35.3402444 C60.5938455,35.5785695 60.676596,35.7705507 60.8420995,35.9161938 C61.007603,36.0618369 61.2426145,36.1346573 61.547141,36.1346573 Z M77.1970755,28.2898298 L77.1970755,38.021388 L74.1385857,38.021388 L74.1385857,36.7503273 C73.7678579,37.3064191 73.3507953,37.6903815 72.8873854,37.902226 C72.4239756,38.1140706 71.9340925,38.2199912 71.4177215,38.2199912 C70.7689477,38.2199912 70.2227943,38.0842804 69.7792449,37.8128546 C69.3356954,37.5414288 68.9782132,37.1806366 68.7067874,36.730467 C68.4353617,36.2802974 68.2400704,35.7606242 68.1209079,35.1714316 C68.0017454,34.5822391 67.942165,33.9632652 67.942165,33.3144915 L67.942165,28.2898298 L71.1198167,28.2898298 L71.1198167,33.3740724 C71.1198167,34.1817296 71.2323574,34.7742233 71.4574422,35.1515713 C71.6825269,35.5289193 72.0532493,35.7175905 72.5696202,35.7175905 C72.9006273,35.7175905 73.1885991,35.6447701 73.4335443,35.499127 C73.6784895,35.3534839 73.8737807,35.1747428 74.0194238,34.9628983 L74.0194238,28.2898298 L77.1970755,28.2898298 Z M82.1224356,35.0423395 C82.1224356,35.2939049 82.1753959,35.4891961 82.2813182,35.6282191 C82.3872404,35.767242 82.5924617,35.8367525 82.8969882,35.8367525 C83.0823521,35.8367525 83.3074336,35.8168923 83.5722392,35.7771715 L83.6715408,37.961807 C83.4067352,38.0412487 83.1055233,38.1041391 82.7678961,38.1504801 C82.4302689,38.1968211 82.0827167,38.2199912 81.7252291,38.2199912 C81.1956179,38.2199912 80.7520751,38.1405507 80.3945875,37.9816673 C80.0370999,37.822784 79.7524381,37.6109426 79.5405936,37.346137 C79.3287491,37.0813314 79.1764882,36.7801195 79.0838062,36.4424923 C78.9911242,36.1048651 78.9447839,35.757313 78.9447839,35.3998254 L78.9447839,24 L82.1224356,24 L82.1224356,35.0423395 Z M83.5325186,28.2898298 L85.0220428,28.2898298 L85.0220428,25.7477084 L88.1996945,25.7477084 L88.1996945,28.2898298 L91,28.2898298 L91,30.7127891 L88.1996945,30.7127891 L88.1996945,34.5259712 C88.1996945,34.9099393 88.282445,35.2111512 88.4479485,35.4296158 C88.613452,35.6480805 88.9146639,35.7573112 89.3515932,35.7573112 C89.5899183,35.7573112 89.8315498,35.7407611 90.076495,35.7076604 C90.3214402,35.6745597 90.5564517,35.6249094 90.7815364,35.5587079 L91,37.7632038 C90.6822332,37.9088469 90.2916508,38.0213876 89.8282409,38.1008293 C89.3648311,38.180271 88.9014282,38.2199912 88.4380183,38.2199912 C87.8157251,38.2199912 87.2894318,38.1240006 86.8591227,37.9320165 C86.4288135,37.7400325 86.0779513,37.4818508 85.8065256,37.1574639 C85.5350998,36.833077 85.3364985,36.4491146 85.2107159,36.0055652 C85.0849332,35.5620158 85.0220428,35.0886828 85.0220428,34.5855521 L85.0220428,30.7127891 L83.5325186,30.7127891 L83.5325186,28.2898298 Z" id="moonsault-copy-27"></path>
        </g>
    </g>
</svg>